<svg width="2" height="6" viewBox="0 0 2 6" fill="none" xmlns="http://www.w3.org/2000/svg">
<path d="M1.70004 4.79C1.70004 4.94 1.63004 5.02 1.49004 5.02C1.35004 5.02 1.28003 4.94 1.28003 4.79V1.32C1.13165 1.44376 0.957362 1.53262 0.770035 1.57999C0.610035 1.57999 0.540039 1.51 0.540039 1.37C0.540039 1.23 0.590043 1.24 0.700043 1.2C0.955415 1.12108 1.17938 0.963607 1.34004 0.749996C1.35998 0.711329 1.39004 0.678809 1.42703 0.65591C1.46402 0.633012 1.50653 0.620597 1.55003 0.619995C1.65003 0.619995 1.70004 0.669995 1.70004 0.759995V4.79Z" fill="white"/>
</svg>
