<svg width="2" height="2" viewBox="0 0 2 2" fill="none" xmlns="http://www.w3.org/2000/svg">
<path d="M1.67999 0.870006C1.68182 0.955646 1.66588 1.04073 1.63318 1.11991C1.60048 1.19908 1.55172 1.27061 1.48999 1.33C1.42921 1.39335 1.35624 1.44373 1.27547 1.47811C1.19469 1.51248 1.10778 1.53013 1.01999 1.53001C0.933519 1.53118 0.847785 1.51396 0.768478 1.47948C0.689172 1.44499 0.618114 1.39404 0.559998 1.33C0.496748 1.27019 0.446359 1.19811 0.411926 1.11815C0.377494 1.0382 0.359741 0.952057 0.359741 0.865005C0.359741 0.777952 0.377494 0.691815 0.411926 0.611861C0.446359 0.531908 0.496748 0.459822 0.559998 0.400008C0.618114 0.33597 0.689172 0.285018 0.768478 0.250537C0.847785 0.216056 0.933519 0.198833 1.01999 0.200007C1.10778 0.199878 1.19469 0.217533 1.27547 0.251906C1.35624 0.28628 1.42921 0.336661 1.48999 0.400008C1.55249 0.460918 1.60165 0.534144 1.63435 0.61505C1.66706 0.695957 1.6826 0.782777 1.67999 0.870006Z" fill="white"/>
</svg>
