<svg width="6" height="6" viewBox="0 0 6 6" fill="none" xmlns="http://www.w3.org/2000/svg">
<path d="M1.03003 2.76007H2.65002C2.88002 2.76007 3.00003 2.87007 3.00003 3.09007V5.09007C3.00501 5.13681 2.99929 5.18408 2.98331 5.22829C2.96732 5.2725 2.94149 5.31249 2.90778 5.34525C2.87406 5.37801 2.83335 5.40266 2.7887 5.41736C2.74404 5.43205 2.69661 5.4364 2.65002 5.43007H1.03003C0.790029 5.43007 0.670044 5.32007 0.670044 5.09007V3.09007C0.670044 2.87007 0.790029 2.76007 1.03003 2.76007ZM2.42004 5.06007C2.52004 5.06007 2.58005 5.00007 2.58005 4.87007V3.32007C2.58346 3.29828 2.58166 3.27599 2.57483 3.25501C2.568 3.23404 2.55631 3.21498 2.54071 3.19938C2.52511 3.18379 2.50605 3.1721 2.48508 3.16526C2.4641 3.15843 2.44184 3.15665 2.42004 3.16007H1.26004C1.15004 3.16007 1.09003 3.16007 1.09003 3.32007V4.87007C1.09003 5.00007 1.15004 5.06007 1.26004 5.06007H2.42004ZM1.70004 0.320068H4.85004C5.12004 0.320068 5.25003 0.440067 5.25003 0.690067V1.94007C5.25857 1.99455 5.25414 2.05027 5.23706 2.1027C5.21998 2.15513 5.19076 2.20279 5.15176 2.24178C5.11277 2.28078 5.0651 2.31 5.01266 2.32708C4.96023 2.34416 4.90451 2.34861 4.85004 2.34007H1.70004C1.64556 2.34861 1.58985 2.34416 1.53741 2.32708C1.48498 2.31 1.43731 2.28078 1.39832 2.24178C1.35932 2.20279 1.3301 2.15513 1.31302 2.1027C1.29594 2.05027 1.29151 1.99455 1.30005 1.94007V0.690067C1.30005 0.440067 1.43004 0.320068 1.70004 0.320068ZM4.62003 1.94007C4.76003 1.94007 4.83005 1.87007 4.83005 1.71007V0.930069C4.83323 0.901718 4.82999 0.873014 4.82056 0.846088C4.81113 0.819163 4.79575 0.794705 4.77557 0.774532C4.7554 0.754359 4.73094 0.73899 4.70401 0.729561C4.67708 0.720132 4.64838 0.716889 4.62003 0.72007H1.93002C1.90167 0.716889 1.873 0.720132 1.84607 0.729561C1.81914 0.73899 1.79468 0.754359 1.77451 0.774532C1.75433 0.794705 1.73895 0.819163 1.72952 0.846088C1.72009 0.873014 1.71685 0.901718 1.72003 0.930069V1.71007C1.72003 1.87007 1.79002 1.94007 1.93002 1.94007H4.62003ZM3.93002 2.76007H5.55005C5.79005 2.76007 5.90002 2.87007 5.90002 3.09007V5.09007C5.90002 5.32007 5.79005 5.43007 5.55005 5.43007H3.93002C3.69002 5.43007 3.58005 5.32007 3.58005 5.09007V3.09007C3.58005 2.87007 3.69002 2.76007 3.93002 2.76007ZM5.32004 5.06007C5.43004 5.06007 5.49005 5.00007 5.49005 4.87007V3.32007C5.49005 3.21007 5.43004 3.16007 5.32004 3.16007H4.16003C4.13824 3.15665 4.11594 3.15843 4.09497 3.16526C4.074 3.1721 4.05493 3.18379 4.03934 3.19938C4.02374 3.21498 4.01205 3.23404 4.00522 3.25501C3.99839 3.27599 3.99661 3.29828 4.00003 3.32007V4.87007C4.00003 5.00007 4.05003 5.06007 4.16003 5.06007H5.32004Z" fill="white"/>
</svg>
