<svg width="15" height="16" viewBox="0 0 15 16" fill="none" xmlns="http://www.w3.org/2000/svg">
<path d="M14.32 5.85005L13.27 7.32005C12.8692 6.95063 12.4376 6.61608 11.98 6.32005C9.17997 6.66005 5.65662 6.87672 1.40996 6.97005L1.09996 5.14005L2.30997 5.20005H3.07996C3.58845 4.81838 4.01949 4.34322 4.34996 3.80005H0.709961V2.09005H6.36996C6.20715 1.75357 6.00939 1.43515 5.77995 1.14005L8.11996 0.930054C8.31996 1.33005 8.49996 1.71005 8.65996 2.09005H14.33V3.80005H11.03C12.1615 4.42576 13.2597 5.11002 14.32 5.85005ZM12.94 12.9501C13.0091 13.5345 12.8825 14.1253 12.58 14.6301C12.1645 14.9495 11.6402 15.0932 11.12 15.0301H8.71996L8.41997 13.2801L10.48 13.3601C10.82 13.3601 10.98 13.2401 10.98 13.0001V12.7601H4.10995V15.1901H2.10995V7.25005H12.94V12.9501ZM10.94 8.82005H4.05997V9.41005H10.94V8.82005ZM4.05997 11.4101H10.94V10.7501H4.05997V11.4101ZM10.5 3.80005H6.57996C6.27261 4.30973 5.89187 4.77136 5.44997 5.17005C6.83997 5.17005 8.44997 5.12005 10.2 5.01005L9.34996 4.46005L10.5 3.80005Z" fill="white"/>
</svg>
