<svg width="3" height="4" viewBox="0 0 3 4" fill="none" xmlns="http://www.w3.org/2000/svg">
<path d="M2.65004 3.19998H2.19003L1.82004 2.19998H1.22003V3.19998H0.790039V0.829982H1.79004C2.01974 0.809947 2.24848 0.877857 2.43004 1.01998C2.49519 1.08566 2.54647 1.16377 2.58083 1.24967C2.61518 1.33556 2.63192 1.42749 2.63004 1.51998C2.6371 1.65756 2.59887 1.79367 2.52121 1.90745C2.44355 2.02124 2.33074 2.10643 2.20004 2.14999L2.65004 3.19998ZM1.22003 1.87998H1.75003C1.87344 1.88949 1.99652 1.85784 2.10004 1.78998C2.1357 1.75478 2.16385 1.71269 2.18275 1.66627C2.20166 1.61986 2.21094 1.57009 2.21004 1.51998C2.21076 1.47138 2.20136 1.42317 2.18242 1.3784C2.16348 1.33364 2.13542 1.29331 2.10004 1.25998C2.01019 1.19509 1.90066 1.16329 1.79004 1.16998H1.22003V1.87998Z" fill="white"/>
</svg>
