<svg width="6" height="1" viewBox="0 0 6 1" fill="none" xmlns="http://www.w3.org/2000/svg">
<path d="M5.62002 0.320033C5.64837 0.316852 5.67706 0.320095 5.70399 0.329524C5.73092 0.338952 5.75538 0.354326 5.77555 0.374499C5.79573 0.394672 5.81109 0.419125 5.82052 0.446051C5.82995 0.472977 5.83319 0.501681 5.83001 0.530032C5.83001 0.680032 5.76002 0.760031 5.62002 0.760031H0.76002C0.62002 0.760031 0.550013 0.680032 0.550013 0.530032C0.546832 0.501681 0.550075 0.472977 0.559504 0.446051C0.568933 0.419125 0.584314 0.394672 0.604487 0.374499C0.62466 0.354326 0.64911 0.338952 0.676035 0.329524C0.702961 0.320095 0.731669 0.316852 0.76002 0.320033H5.62002Z" fill="white"/>
</svg>
