<svg width="14" height="15" viewBox="0 0 14 15" fill="none" xmlns="http://www.w3.org/2000/svg">
<path d="M0.0700684 0.26001H13.5001V14.19H11.6301V13.75H1.94006V14.19H0.0700684V0.26001ZM7.58008 1.76001V2.24001H11.1801V3.32001H7.56006V3.78001H10.8501V7.25001H10.2901C10.7001 7.70001 11.0301 8.07001 11.2901 8.38001L10.2001 9.02001L9.87006 8.50001H9.62006V9.10001H11.3101V10.32H9.62006V10.82C9.62006 11.64 9.24008 12.05 8.49008 12.05H6.75006L6.52008 10.83L7.66006 10.92H7.72006C7.89006 10.92 7.97006 10.82 7.97006 10.62V10.32H3.97006C4.63403 10.4452 5.28389 10.6362 5.91006 10.89L5.23007 11.99C4.54104 11.6588 3.83316 11.3683 3.11008 11.12L3.85007 10.32H2.31006V9.10001H7.99008V8.61001C7.03008 8.67668 5.26005 8.72667 2.68005 8.76001L2.46005 7.61001C3.40005 7.65001 4.54007 7.67001 5.88007 7.67001V7.23001H2.71005V3.76001H5.85007V3.32001H2.37006V2.24001H5.85007V1.76001H1.95007V12.32H11.6401V1.76001H7.58008ZM4.27008 4.64001V5.14001H5.85007V4.64001H4.27008ZM4.27008 5.81001V6.32001H5.85007V5.77001L4.27008 5.81001ZM7.56006 4.64001V5.14001H9.25006V4.64001H7.56006ZM7.56006 5.88001V6.32001H9.25006V5.84001L7.56006 5.88001ZM7.56006 7.23001V7.65001H9.23007L8.93005 7.27001L7.56006 7.23001Z" fill="white"/>
</svg>
