<svg width="3" height="3" viewBox="0 0 3 3" fill="none" xmlns="http://www.w3.org/2000/svg">
<path d="M2.39 0.48999V2.01999C2.3959 2.17889 2.37564 2.33767 2.33 2.48999C2.27414 2.61359 2.17931 2.71546 2.06001 2.77999C1.90962 2.86121 1.74091 2.90253 1.57001 2.89999C1.40419 2.90701 1.23923 2.87264 1.09001 2.79999C0.973593 2.7318 0.879718 2.63098 0.820006 2.50999C0.763225 2.36344 0.736033 2.2071 0.740004 2.04999V0.48999H1.18001V2.01999C1.16907 2.09372 1.17509 2.16897 1.19761 2.24002C1.22014 2.31107 1.25859 2.37604 1.31001 2.42999C1.39779 2.49252 1.50226 2.52734 1.61 2.52999C1.72975 2.53492 1.84716 2.49578 1.94 2.41999C1.98656 2.36523 2.02128 2.30141 2.04193 2.23257C2.06258 2.16372 2.06874 2.09134 2.06001 2.01999V0.48999H2.39Z" fill="white"/>
</svg>
