<svg width="15" height="16" viewBox="0 0 15 16" fill="none" xmlns="http://www.w3.org/2000/svg">
<path d="M8.09996 9.99996H14.04V11.48H10.24C10.8175 11.8796 11.4557 12.1836 12.13 12.38C12.8188 12.6226 13.5337 12.7837 14.26 12.86L13.47 14.7C11.3654 14.2812 9.4671 13.1556 8.08995 11.51V15.17H6.16997V11.51C5.61405 12.3186 4.86461 12.9752 3.98996 13.42C3.07048 14.0062 2.05498 14.4259 0.98996 14.66L0.0899658 12.85C0.87067 12.7648 1.63902 12.5903 2.37996 12.33C3.02034 12.1664 3.62194 11.8775 4.14996 11.48H0.319962V9.99996H6.23996V9.31996H1.63995V5.75996C1.42656 6.12448 1.16784 6.46049 0.869965 6.75996L0.0999603 4.85996C0.675268 4.39565 1.18343 3.85382 1.60995 3.24996C2.15031 2.58472 2.56999 1.82999 2.84996 1.01996L4.67996 1.28996C4.57758 1.5932 4.45048 1.88752 4.29996 2.16996H6.78996C6.66721 1.81642 6.49914 1.48029 6.28996 1.16996L8.28996 0.959961C8.52549 1.3277 8.70417 1.72889 8.81996 2.14996H13.48V3.53996H8.72997V4.09996H12.94V5.31996H8.72997V5.91996H12.94V7.12996H8.72997V7.80996H13.83V9.31996H8.13997L8.09996 9.99996ZM6.84996 4.11996V3.55996H3.54996V4.11996H6.84996ZM6.84996 5.91996V5.31996H3.54996V5.91996H6.84996ZM6.84996 7.80996V7.12996H3.54996V7.80996H6.84996Z" fill="white"/>
</svg>
