<svg width="3" height="3" viewBox="0 0 3 3" fill="none" xmlns="http://www.w3.org/2000/svg">
<path d="M0.27002 2.87003V0.490027H1.14001C1.28703 0.485853 1.43317 0.514163 1.56799 0.572932C1.70282 0.631701 1.82302 0.719482 1.92003 0.830027C2.11666 1.06966 2.22412 1.37005 2.22412 1.68003C2.22412 1.99001 2.11666 2.2904 1.92003 2.53003C1.80955 2.64519 1.67553 2.73518 1.52711 2.79385C1.3787 2.85253 1.21939 2.87851 1.06003 2.87003H0.27002ZM0.710022 2.52003H1.06003C1.15287 2.52174 1.24493 2.5029 1.32964 2.46487C1.41435 2.42683 1.4896 2.37054 1.55002 2.30003C1.69395 2.11899 1.76525 1.89081 1.75002 1.66003C1.75662 1.4504 1.69715 1.244 1.58002 1.07003C1.52808 0.99383 1.45782 0.931913 1.37569 0.889975C1.29356 0.848037 1.2022 0.827422 1.11002 0.830027H0.710022V2.52003Z" fill="white"/>
</svg>
