<svg width="15" height="30" viewBox="0 0 15 30" fill="none" xmlns="http://www.w3.org/2000/svg">
<path d="M2.06998 0.579621C1.79732 0.579921 1.52925 0.650222 1.29123 0.783234C1.05321 0.916246 0.853114 1.10781 0.709965 1.33987C0.628045 1.46583 0.567252 1.60448 0.529972 1.75003C0.486486 1.89277 0.462922 2.04078 0.459965 2.18997V16.6997C0.45905 17.1173 0.620413 17.519 0.909977 17.8199L12.11 29.44C12.407 29.7476 12.8141 29.9247 13.2417 29.9322C13.6693 29.9397 14.0823 29.7771 14.39 29.48C14.6976 29.183 14.8747 28.7758 14.8822 28.3482C14.8897 27.9206 14.727 27.5074 14.43 27.1997L3.68998 16.0498V2.18997C3.68998 1.9777 3.64801 1.76731 3.56647 1.57132C3.48494 1.37533 3.36544 1.19752 3.21488 1.04788C3.06431 0.898249 2.88567 0.780057 2.68918 0.699738C2.49269 0.619418 2.28225 0.578302 2.06998 0.579621Z" fill="#060303"/>
</svg>
