<svg width="185" height="6" viewBox="0 0 185 6" fill="none" xmlns="http://www.w3.org/2000/svg">
<path d="M181.85 5.25002H3.0801C2.48336 5.25002 1.91106 5.01304 1.4891 4.59109C1.06715 4.16913 0.830101 3.59676 0.830101 3.00002C0.828777 2.70418 0.886068 2.41105 0.998672 2.13747C1.11128 1.86389 1.27696 1.61522 1.48615 1.40603C1.69535 1.19683 1.94392 1.03133 2.2175 0.918724C2.49108 0.806119 2.78426 0.748699 3.0801 0.750022H181.85C182.146 0.748705 182.44 0.805996 182.714 0.918479C182.988 1.03096 183.238 1.19648 183.448 1.40554C183.658 1.6146 183.824 1.8631 183.938 2.13674C184.052 2.41038 184.11 2.7037 184.11 3.00002C184.107 3.59768 183.868 4.1699 183.445 4.59158C183.021 5.01325 182.448 5.25003 181.85 5.25002Z" fill="#44F051"/>
</svg>
