<svg width="6" height="6" viewBox="0 0 6 6" fill="none" xmlns="http://www.w3.org/2000/svg">
<path d="M1.10996 2.70996H2.72996C2.95995 2.70996 3.07993 2.82004 3.07993 3.04004V5.04004C3.08659 5.08756 3.08217 5.13614 3.06693 5.18164C3.05169 5.22714 3.02609 5.26881 2.99216 5.30273C2.95823 5.33666 2.91687 5.36172 2.87137 5.37695C2.82587 5.39219 2.77747 5.39728 2.72996 5.39062H1.10996C1.06206 5.39692 1.01335 5.39217 0.967504 5.37695C0.921654 5.36174 0.879826 5.33641 0.845189 5.30273C0.810553 5.26906 0.783989 5.22802 0.767492 5.18262C0.750994 5.13721 0.745034 5.08809 0.749975 5.04004V3.04004C0.749975 2.82004 0.86996 2.70996 1.10996 2.70996ZM2.49997 5.01074C2.60997 5.01074 2.65995 4.95031 2.65995 4.82031V3.32031C2.65995 3.20031 2.65997 3.15039 2.49997 3.15039H1.33994C1.31684 3.14704 1.29331 3.14889 1.27115 3.15625C1.249 3.16361 1.22882 3.17588 1.21232 3.19238C1.19581 3.20889 1.18342 3.2298 1.17606 3.25195C1.1687 3.27411 1.1666 3.29721 1.16996 3.32031V4.86035C1.16996 4.99035 1.22994 5.05078 1.33994 5.05078L2.49997 5.01074ZM1.77994 0.270508H4.92997C5.19997 0.270508 5.32993 0.400625 5.32993 0.640625V1.89062C5.33847 1.9451 5.33407 2.0003 5.31699 2.05273C5.29991 2.10517 5.27066 2.15339 5.23166 2.19238C5.19267 2.23138 5.145 2.26026 5.09257 2.27734C5.04013 2.29442 4.98445 2.29858 4.92997 2.29004H1.77994C1.72547 2.29858 1.66978 2.29442 1.61735 2.27734C1.56491 2.26026 1.51724 2.23138 1.47825 2.19238C1.43925 2.15339 1.41 2.10517 1.39292 2.05273C1.37584 2.0003 1.37144 1.9451 1.37998 1.89062V0.640625C1.37998 0.400625 1.50994 0.320312 1.77994 0.320312V0.270508ZM4.69993 1.89062C4.83993 1.89062 4.90995 1.82016 4.90995 1.66016V0.879883C4.91313 0.851532 4.90992 0.822824 4.90049 0.795898C4.89106 0.768973 4.87568 0.744782 4.8555 0.724609C4.83533 0.704436 4.81084 0.689116 4.78391 0.679688C4.75698 0.670259 4.72828 0.666741 4.69993 0.669922H2.00992C1.98157 0.666741 1.95293 0.670259 1.926 0.679688C1.89907 0.689116 1.87458 0.704436 1.85441 0.724609C1.83423 0.744782 1.81885 0.768973 1.80942 0.795898C1.79999 0.822824 1.79678 0.851532 1.79996 0.879883V1.66016C1.79996 1.82016 1.86992 1.89062 2.00992 1.89062H4.69993ZM4.00992 2.70996H5.62998C5.86998 2.70996 5.97996 2.82004 5.97996 3.04004V5.04004C5.98661 5.08756 5.98213 5.13614 5.96689 5.18164C5.95166 5.22714 5.92605 5.26881 5.89213 5.30273C5.8582 5.33666 5.8169 5.36172 5.7714 5.37695C5.7259 5.39219 5.6775 5.39728 5.62998 5.39062H4.00992C3.9624 5.39728 3.914 5.39219 3.8685 5.37695C3.82301 5.36172 3.78171 5.33666 3.74778 5.30273C3.71385 5.26881 3.68825 5.22714 3.67301 5.18164C3.65777 5.13614 3.65329 5.08756 3.65995 5.04004V3.04004C3.65995 2.82004 3.76992 2.70996 4.00992 2.70996ZM5.39994 5.01074C5.50994 5.01074 5.56992 4.95031 5.56992 4.82031V3.32031C5.57328 3.29721 5.57124 3.27411 5.56388 3.25195C5.55652 3.2298 5.54407 3.20889 5.52756 3.19238C5.51105 3.17588 5.49094 3.16361 5.46879 3.15625C5.44663 3.14889 5.42304 3.14704 5.39994 3.15039H4.23996C4.12996 3.15039 4.07993 3.15031 4.07993 3.32031V4.86035C4.07993 4.99035 4.07996 5.05078 4.23996 5.05078L5.39994 5.01074Z" fill="white"/>
</svg>
