<svg width="3" height="3" viewBox="0 0 3 3" fill="none" xmlns="http://www.w3.org/2000/svg">
<path d="M2.35994 2.03998L2.75995 2.08998C2.73783 2.31025 2.63867 2.51565 2.47995 2.66998C2.3986 2.74977 2.30133 2.8115 2.19449 2.85113C2.08766 2.89076 1.97365 2.90741 1.85994 2.89998C1.67007 2.9097 1.48272 2.85314 1.32995 2.73998C1.19177 2.62124 1.08525 2.47005 1.01995 2.29998C0.947137 2.10138 0.9099 1.8915 0.909947 1.67998C0.893007 1.36239 0.984715 1.0485 1.16996 0.789979C1.25212 0.680258 1.35959 0.592033 1.48322 0.53283C1.60685 0.473628 1.74296 0.445203 1.87995 0.449979C2.09445 0.445594 2.30232 0.524438 2.45995 0.669976C2.63021 0.834598 2.73653 1.05431 2.75995 1.28998L2.35994 1.33998C2.29328 0.979978 2.13328 0.799977 1.87995 0.799977C1.80372 0.797558 1.72839 0.816983 1.66283 0.855962C1.59728 0.894941 1.54424 0.95185 1.50995 1.01998C1.40684 1.22053 1.35855 1.44476 1.36995 1.66998C1.35606 1.89539 1.4045 2.12027 1.50995 2.31998C1.54848 2.38671 1.60386 2.44216 1.67055 2.48077C1.73724 2.51938 1.81289 2.53979 1.88994 2.53998C1.9502 2.54097 2.00997 2.52898 2.06519 2.50482C2.12041 2.48066 2.16978 2.44491 2.20995 2.39998C2.30001 2.30089 2.353 2.1737 2.35994 2.03998Z" fill="white"/>
</svg>
