<svg width="15" height="16" viewBox="0 0 15 16" fill="none" xmlns="http://www.w3.org/2000/svg">
<path d="M14.4 5.80078L13.4 7.26074C12.9947 6.89237 12.56 6.55792 12.1 6.26074C9.29998 6.60074 5.77663 6.81682 1.52997 6.91016L1.21997 5.08008L2.42999 5.14062H3.19995C3.70845 4.75895 4.1395 4.2834 4.46997 3.74023H0.829956V2.04004H6.48999C6.33183 1.70102 6.13374 1.3819 5.89996 1.08984L8.23999 0.870117C8.43999 1.27012 8.61997 1.65004 8.77997 2.04004H14.45V3.74023H11.15C12.2681 4.37039 13.3529 5.05852 14.4 5.80078ZM13.02 12.9004C13.0891 13.4848 12.9625 14.0753 12.66 14.5801C12.246 14.9031 11.7216 15.0505 11.2 14.9902H8.84998L8.54999 13.2402L10.62 13.3105C10.95 13.3105 11.11 13.1902 11.11 12.9502V12.71H4.23999V15.1406H2.23999V7.2002H13.0699L13.02 12.9004ZM11.02 8.77051H4.13995V9.36035H11.02V8.77051ZM4.13995 11.3701H11.02V10.7002H4.13995V11.3701ZM10.58 3.75H6.65997C6.35613 4.26215 5.97496 4.72439 5.52997 5.12012C6.91997 5.12012 8.52997 5.11996 10.28 4.95996L9.42999 4.41016L10.58 3.75Z" fill="white"/>
</svg>
