<svg width="4" height="5" viewBox="0 0 4 5" fill="none" xmlns="http://www.w3.org/2000/svg">
<path d="M3.10005 4.68058C3.10005 4.81058 3.01004 4.87003 2.84004 4.87003H1.03004C0.840043 4.87003 0.740065 4.80007 0.740065 4.66007C0.785814 4.50477 0.85315 4.3572 0.940077 4.22062C1.06633 3.97131 1.22428 3.73895 1.41005 3.53019C1.85005 3.00019 2.11006 2.70026 2.17006 2.61026C2.41535 2.31028 2.56821 1.94569 2.61006 1.56046C2.61394 1.47308 2.59896 1.38569 2.56618 1.3046C2.53339 1.22351 2.48357 1.14989 2.42006 1.08976C2.28965 0.977184 2.12227 0.916735 1.95003 0.919834C1.8365 0.916411 1.72357 0.937311 1.61848 0.980381C1.51339 1.02345 1.41851 1.08773 1.34004 1.16983C1.19067 1.33779 1.10876 1.55543 1.11006 1.78019C1.11006 1.94019 1.03005 2.02042 0.910047 2.02042C0.790047 2.02042 0.700026 1.94019 0.700026 1.78019C0.689638 1.61379 0.714961 1.44676 0.774244 1.29093C0.833528 1.1351 0.925412 0.994282 1.04378 0.876865C1.16214 0.759448 1.30422 0.668294 1.46052 0.610264C1.61682 0.552234 1.78371 0.528227 1.95003 0.539951C2.09912 0.522583 2.25022 0.538815 2.3921 0.587803C2.53399 0.636791 2.66305 0.717497 2.76967 0.823154C2.87628 0.928812 2.95774 1.05672 3.00801 1.19815C3.05828 1.33959 3.07609 1.49129 3.06007 1.64054C3.01742 2.01056 2.86406 2.3591 2.62007 2.64054C2.56007 2.72054 2.31005 3.03069 1.85005 3.55069C1.60928 3.81935 1.41035 4.12217 1.26002 4.45011H2.85005C3.01005 4.49011 3.10005 4.55058 3.10005 4.68058Z" fill="white"/>
</svg>
