<svg width="5" height="6" viewBox="0 0 5 6" fill="none" xmlns="http://www.w3.org/2000/svg">
<path d="M0.280029 5.40002V0.73002H2.00003C2.28975 0.7212 2.57775 0.777748 2.84262 0.895469C3.10749 1.01319 3.34243 1.18906 3.53003 1.41002C3.91949 1.87793 4.12562 2.47144 4.11003 3.08002C4.12967 3.68672 3.9148 4.27765 3.51004 4.73002C3.2937 4.96026 3.02906 5.13974 2.73514 5.25559C2.44121 5.37143 2.12529 5.42075 1.81004 5.40002H0.280029ZM1.14003 4.71002H1.84004C2.02748 4.71889 2.21453 4.68579 2.38754 4.61313C2.56055 4.54046 2.71515 4.43007 2.84004 4.29002C3.12568 3.93497 3.26516 3.48435 3.23004 3.03002C3.24456 2.61683 3.1253 2.20999 2.89003 1.87002C2.78909 1.72249 2.65312 1.60232 2.49429 1.52029C2.33547 1.43826 2.15877 1.39693 1.98004 1.40002H1.18004L1.14003 4.71002Z" fill="white"/>
</svg>
