<svg width="23" height="39" viewBox="0 0 23 39" fill="none" xmlns="http://www.w3.org/2000/svg">
<path d="M5.70001 11.3198V23.4199C5.69884 24.2088 5.48463 24.9825 5.08002 25.6597V35.0298C5.07185 35.4339 5.14541 35.8355 5.2963 36.2105C5.44718 36.5854 5.67228 36.9261 5.95807 37.2119C6.24386 37.4977 6.58446 37.7226 6.95941 37.8735C7.33436 38.0244 7.73593 38.098 8.14001 38.0898H14.27C15.0816 38.0898 15.8599 37.7672 16.4337 37.1934C17.0076 36.6195 17.33 35.8414 17.33 35.0298V20.3398C17.5941 20.6209 17.9098 20.8483 18.26 21.0098C18.6923 21.2032 19.1661 21.2854 19.6383 21.249C20.1105 21.2126 20.5661 21.0587 20.9636 20.8013C21.3611 20.5439 21.688 20.1914 21.9144 19.7754C22.1408 19.3594 22.2596 18.8935 22.26 18.4199V6.31983C22.26 4.81605 21.6626 3.37388 20.5993 2.31055C19.536 1.24722 18.0938 0.649908 16.59 0.649908H5.85001C4.67796 0.648292 3.53421 1.00994 2.57614 1.68506C1.61807 2.36019 0.892749 3.31564 0.5 4.41993C1.99908 4.8483 3.31771 5.75344 4.25604 6.99854C5.19438 8.24364 5.7013 9.76074 5.70001 11.3198Z" fill="#F0F1F1"/>
</svg>
