<svg width="6" height="6" viewBox="0 0 6 6" fill="none" xmlns="http://www.w3.org/2000/svg">
<path d="M0.849949 3.32031V3.37988C0.852161 3.78629 0.811948 4.19178 0.729954 4.58984C0.676277 4.88025 0.585515 5.16337 0.459934 5.43066C0.399934 5.51066 0.349961 5.55078 0.299961 5.55078C0.249961 5.55078 0.0699709 5.46984 0.0599709 5.33984C0.0512988 5.30031 0.0512988 5.26023 0.0599709 5.2207C0.203164 4.90266 0.30077 4.56601 0.349949 4.2207C0.398448 3.9501 0.421888 3.67529 0.419956 3.40039V0.520508C0.419956 0.390508 0.479949 0.320312 0.599949 0.320312C0.627742 0.315381 0.656296 0.31705 0.683323 0.325195C0.71035 0.33334 0.735087 0.34772 0.755528 0.367188C0.775968 0.386655 0.791546 0.410902 0.800999 0.4375C0.810452 0.464098 0.813541 0.492507 0.809971 0.520508V1.90039H1.32993V0.320312C1.32667 0.294586 1.32934 0.268676 1.33774 0.244141C1.34614 0.219606 1.36005 0.197048 1.37839 0.178711C1.39673 0.160374 1.41904 0.146092 1.44358 0.137695C1.46811 0.129298 1.4942 0.126627 1.51993 0.129883C1.65993 0.129883 1.71994 0.190313 1.71994 0.320312V1.83008H1.84995C1.87568 1.82682 1.90183 1.82949 1.92636 1.83789C1.9509 1.84629 1.97315 1.86057 1.99149 1.87891C2.00983 1.89724 2.02374 1.9198 2.03214 1.94434C2.04054 1.96887 2.04321 1.99478 2.03995 2.02051C2.0416 2.04544 2.03771 2.07048 2.0286 2.09375C2.01949 2.11702 2.00536 2.13809 1.98722 2.15527C1.96907 2.17246 1.94741 2.18552 1.92368 2.19336C1.89995 2.2012 1.87476 2.20319 1.84995 2.2002H0.849949V2.89062H1.52994C1.83994 2.89062 1.99997 3.04008 1.99997 3.33008V5.33008C2.00315 5.35843 1.99988 5.38714 1.99045 5.41406C1.98102 5.44099 1.96564 5.46616 1.94547 5.48633C1.9253 5.5065 1.90086 5.52182 1.87394 5.53125C1.84701 5.54068 1.8183 5.54322 1.78995 5.54004C1.65995 5.54004 1.59995 5.47008 1.59995 5.33008V3.5C1.6032 3.47427 1.60053 3.44836 1.59214 3.42383C1.58374 3.39929 1.56982 3.37674 1.55149 3.3584C1.53315 3.34006 1.5109 3.32676 1.48636 3.31836C1.46183 3.30996 1.43567 3.30729 1.40995 3.31055L0.849949 3.32031ZM5.42997 4.2207C5.54997 4.2207 5.60996 4.28016 5.60996 4.41016C5.60996 4.54016 5.54997 4.61035 5.42997 4.61035H4.42997V5.36035C4.42997 5.41605 4.40782 5.46941 4.36844 5.50879C4.32906 5.54817 4.27564 5.57031 4.21994 5.57031C4.16425 5.57031 4.11083 5.54817 4.07145 5.50879C4.03206 5.46941 4.00992 5.41605 4.00992 5.36035V4.61035H2.21994C2.09994 4.61035 2.03995 4.54016 2.03995 4.41016C2.03995 4.28016 2.09994 4.2207 2.21994 4.2207H4.00992V3.58008C4.00992 3.52438 4.03206 3.47102 4.07145 3.43164C4.11083 3.39226 4.16425 3.37012 4.21994 3.37012C4.27564 3.37012 4.32906 3.39226 4.36844 3.43164C4.40782 3.47102 4.42997 3.52438 4.42997 3.58008V4.2207H5.42997ZM3.75992 0.110352C3.81268 0.111103 3.86301 0.132239 3.89994 0.169922C3.92116 0.188878 3.93832 0.212496 3.95035 0.238281C3.96238 0.264067 3.96905 0.291872 3.96994 0.320312C3.96882 0.377313 3.95149 0.43297 3.91996 0.480469C3.89416 0.539264 3.86405 0.596006 3.82993 0.650391H4.84995C5.13995 0.650391 5.28995 0.790313 5.28995 1.07031V2.74023C5.29826 2.79996 5.29259 2.8608 5.27341 2.91797C5.25424 2.97514 5.22206 3.0267 5.17942 3.06934C5.13678 3.11197 5.08485 3.14489 5.02768 3.16406C4.97051 3.18324 4.90967 3.18897 4.84995 3.18066H3.84995C3.76084 3.37554 3.62725 3.54679 3.45993 3.68066C3.24156 3.86016 2.99488 4.00201 2.72995 4.10059H2.59995C2.46995 4.10059 2.39994 4.03012 2.39994 3.87012C2.3986 3.83007 2.40936 3.79071 2.43076 3.75684C2.45216 3.72296 2.4832 3.69667 2.51993 3.68066C2.74901 3.60434 2.96492 3.49295 3.15995 3.35059C3.23082 3.29151 3.29458 3.2242 3.34995 3.15039H2.66996C2.61058 3.15915 2.54995 3.15394 2.49308 3.13477C2.4362 3.11559 2.3847 3.08297 2.34275 3.04004C2.3008 2.99711 2.26961 2.945 2.25174 2.8877C2.23388 2.83039 2.22984 2.76912 2.23996 2.70996V1.04004C2.23113 0.981969 2.23627 0.922885 2.25492 0.867188C2.27357 0.81149 2.30518 0.760769 2.3472 0.719727C2.38922 0.678684 2.44043 0.648196 2.49656 0.630859C2.55268 0.613523 2.61211 0.609925 2.66996 0.620117H3.31992L3.37998 0.540039C3.44998 0.420039 3.51993 0.299922 3.57993 0.169922C3.59589 0.142152 3.61751 0.118552 3.64334 0.0996094C3.66918 0.0806672 3.69867 0.0674263 3.72995 0.0605469L3.75992 0.110352ZM2.63993 1.66992H3.52994V1.04004H2.80997C2.78779 1.03699 2.76519 1.03909 2.74387 1.0459C2.72254 1.05271 2.70304 1.06474 2.68674 1.08008C2.67044 1.09542 2.65772 1.11389 2.64963 1.13477C2.64154 1.15564 2.63823 1.17787 2.63993 1.2002V1.66992ZM3.50992 2.79004C3.51432 2.72678 3.51432 2.66384 3.50992 2.60059V2.04004H2.61997V2.60059C2.61997 2.72059 2.67995 2.79004 2.78995 2.79004H3.50992ZM4.77994 2.79004C4.88994 2.79004 4.94992 2.72059 4.94992 2.60059V2.04004H3.94992V2.60059C3.94992 2.66059 3.94992 2.72004 3.94992 2.79004H4.77994ZM3.94992 1.04004V1.66992H4.94992V1.2002C4.95163 1.17787 4.94831 1.15564 4.94022 1.13477C4.93213 1.11389 4.91947 1.09542 4.90317 1.08008C4.88687 1.06474 4.86737 1.05271 4.84604 1.0459C4.82472 1.03909 4.80212 1.03699 4.77994 1.04004H3.94992Z" fill="white"/>
</svg>
