<svg width="15" height="16" viewBox="0 0 15 16" fill="none" xmlns="http://www.w3.org/2000/svg">
<path d="M8.17993 9.9502H14.1299V11.4307H10.3299C10.9036 11.8306 11.5386 12.134 12.2099 12.3301C12.8987 12.5727 13.6136 12.7343 14.3399 12.8105L13.5499 14.6504C11.4439 14.2354 9.54441 13.1087 8.16992 11.46V15.1201H6.24994V11.46C5.69403 12.2686 4.94454 12.9253 4.06989 13.3701C3.15259 13.9605 2.13632 14.3808 1.06989 14.6104L0.169922 12.8008C0.949575 12.7148 1.71746 12.5431 2.4599 12.29C3.10031 12.1215 3.70161 11.83 4.22992 11.4307H0.399902V9.9502H6.31989V9.24023H1.71991V5.70996C1.51041 6.07709 1.25128 6.41359 0.94989 6.70996L0.179932 4.81055C0.755239 4.34623 1.26342 3.80406 1.68994 3.2002C2.23182 2.54173 2.65482 1.79392 2.93994 0.990234L4.7699 1.27051C4.66554 1.56975 4.5385 1.86071 4.38989 2.14062H6.84991C6.72716 1.78708 6.5591 1.45095 6.34991 1.14062L8.34991 0.930664C8.58948 1.29622 8.76848 1.69751 8.87994 2.12012H13.5399V3.51074H8.78992V4.07031H12.9999V5.27051H8.78992V5.87988H12.9999V7.08008H8.78992V7.76074H13.8499V9.24023H8.15991L8.17993 9.9502ZM6.8999 4.07031V3.51074H3.62994V4.07031H6.8999ZM6.8999 5.87988V5.32031H3.62994V5.93066L6.8999 5.87988ZM6.8999 7.76074V7.08008H3.62994V7.76074H6.8999Z" fill="white"/>
</svg>
