<svg width="19" height="42" viewBox="0 0 19 42" fill="none" xmlns="http://www.w3.org/2000/svg">
<path d="M0.909944 15.9297C0.910558 20.9679 2.16499 25.9269 4.56015 30.3594C6.95531 34.7918 10.4159 38.5584 14.6299 41.3198L18.4099 37.52C16.4838 36.4215 14.7088 35.0769 13.1299 33.52C9.30418 29.6962 6.81142 24.7421 6.02075 19.3911C5.23009 14.0402 6.18356 8.57689 8.73996 3.81006L5.84995 4.31982C5.71022 4.34411 5.56673 4.33517 5.43118 4.29346C5.29563 4.25175 5.17186 4.17822 5.06995 4.07959C4.97054 3.97973 4.89539 3.8586 4.85031 3.7251C4.80523 3.59159 4.79141 3.44975 4.80994 3.31006L5.23996 0.310059C2.39928 5.02447 0.901918 10.4256 0.909944 15.9297Z" fill="#989999"/>
</svg>
