<svg width="51" height="49" viewBox="0 0 51 49" fill="none" xmlns="http://www.w3.org/2000/svg">
<path d="M43.15 41.8898C47.1821 37.8608 49.6695 32.5427 50.1774 26.8654C50.6852 21.188 49.1811 15.5127 45.928 10.8322C42.6749 6.15156 37.88 2.76343 32.3817 1.26038C26.8834 -0.242675 21.0317 0.235205 15.85 2.60999L21.5 8.60999C21.5974 8.71039 21.6691 8.83288 21.7092 8.96692C21.7492 9.10096 21.7564 9.24262 21.73 9.38001C21.91 9.07165 22.1874 8.83185 22.5185 8.69837C22.8497 8.56488 23.2158 8.54537 23.5593 8.6427C23.9028 8.74003 24.2043 8.94861 24.4162 9.23596C24.6281 9.52332 24.7385 9.87316 24.73 10.2301V24.09L35.47 35.2399C35.767 35.5475 35.9297 35.9607 35.9222 36.3883C35.9147 36.8159 35.7376 37.2231 35.43 37.5201C35.1223 37.8172 34.7092 37.9798 34.2817 37.9723C33.8541 37.9648 33.447 37.7878 33.15 37.4801L21.95 25.86C21.6604 25.5591 21.499 25.1574 21.5 24.7399V10.2301C21.5029 10.0809 21.5265 9.93291 21.57 9.79016C21.4323 9.9676 21.2319 10.0852 21.01 10.1198L5.38997 12.61L4.46996 12.7501L3.77996 12.86C1.22355 17.6268 0.270112 23.0901 1.06078 28.441C1.85144 33.792 4.3442 38.7462 8.16997 42.57C9.74887 44.1268 11.5238 45.4715 13.45 46.57L13.62 46.4C13.757 46.2646 13.9334 46.1758 14.1239 46.1471C14.3144 46.1183 14.5091 46.1509 14.6799 46.2399C15.0799 46.4499 15.49 46.6497 15.91 46.8497L16.04 46.9098C16.42 47.0898 16.82 47.2498 17.22 47.4098L17.33 47.4601C18.2208 47.7946 19.1287 48.0816 20.05 48.32H20.13C20.53 48.43 20.95 48.51 21.37 48.59L21.74 48.65L22.74 48.8102L23.19 48.8698C23.5166 48.9098 23.85 48.9401 24.19 48.9601H24.62C25.09 48.9601 25.56 48.9601 26.03 48.9601C29.2082 48.9646 32.3562 48.3422 35.2938 47.129C38.2314 45.9159 40.901 44.1355 43.15 41.8898Z" fill="#F0F1F1"/>
</svg>
