<svg width="6" height="6" viewBox="0 0 6 6" fill="none" xmlns="http://www.w3.org/2000/svg">
<path d="M2.26004 0.150024C2.39004 0.150024 2.46004 0.230022 2.46004 0.370022V1.14002H3.18004V0.370022C3.18004 0.314326 3.20216 0.260914 3.24155 0.221531C3.28093 0.182148 3.33433 0.160023 3.39003 0.160023C3.44573 0.160023 3.49915 0.182148 3.53853 0.221531C3.57791 0.260914 3.60004 0.314326 3.60004 0.370022V1.14002H4.11005C4.10161 1.11745 4.10161 1.09259 4.11005 1.07002C4.2734 0.845547 4.42363 0.611824 4.56003 0.370022C4.57122 0.337557 4.59322 0.309914 4.62234 0.291714C4.65147 0.273513 4.68594 0.265859 4.72003 0.270023C4.77238 0.255539 4.82769 0.255539 4.88004 0.270023C4.90036 0.280571 4.91752 0.296297 4.92981 0.315613C4.9421 0.334928 4.94909 0.357149 4.95004 0.380024C4.95904 0.419518 4.95904 0.460529 4.95004 0.500023C4.8434 0.70889 4.7161 0.906545 4.57004 1.09002H5.35004C5.48004 1.09002 5.54004 1.15002 5.54004 1.27002C5.54004 1.39002 5.48004 1.45002 5.35004 1.45002H4.15002L3.86005 2.08002H5.12003C5.14575 2.07676 5.17191 2.07944 5.19644 2.08784C5.22098 2.09623 5.24326 2.11013 5.2616 2.12847C5.27993 2.1468 5.29382 2.1691 5.30222 2.19363C5.31061 2.21817 5.31328 2.2443 5.31003 2.27002C5.31168 2.29496 5.30782 2.31995 5.29871 2.34322C5.2896 2.36649 5.27547 2.38747 5.25732 2.40466C5.23918 2.42185 5.21749 2.43482 5.19376 2.44267C5.17003 2.45051 5.14484 2.45302 5.12003 2.45002H3.03003V2.84002H4.95004C5.08004 2.84002 5.14005 2.91002 5.14005 3.04002C5.14005 3.17002 5.08004 3.22002 4.95004 3.22002H3.03003V3.61002H5.33005C5.35577 3.60677 5.3819 3.60944 5.40643 3.61784C5.43097 3.62623 5.45325 3.64013 5.47159 3.65847C5.48992 3.67681 5.50384 3.69909 5.51224 3.72363C5.52063 3.74816 5.52331 3.7743 5.52005 3.80002C5.52005 3.94002 5.46005 4.01002 5.33005 4.01002H3.33003C3.65003 4.19002 3.94004 4.34002 4.20004 4.46002C4.62274 4.64034 5.06129 4.78095 5.51004 4.88002C5.55671 4.89144 5.59805 4.91852 5.62717 4.95673C5.65628 4.99495 5.67142 5.042 5.67004 5.09002C5.67524 5.1214 5.67287 5.15356 5.66315 5.18384C5.65343 5.21412 5.63662 5.24165 5.61414 5.26413C5.59165 5.28662 5.56412 5.30342 5.53384 5.31314C5.50356 5.32286 5.47141 5.32522 5.44003 5.32002C5.31053 5.33603 5.17956 5.33603 5.05005 5.32002C4.78257 5.24902 4.52162 5.15535 4.27005 5.04002C3.85145 4.844 3.45003 4.61319 3.07004 4.35002V5.42002C3.07004 5.47572 3.04791 5.52913 3.00853 5.56852C2.96915 5.6079 2.91573 5.63002 2.86003 5.63002C2.80434 5.63002 2.75093 5.6079 2.71155 5.56852C2.67217 5.52913 2.65004 5.47572 2.65004 5.42002V4.37002C2.42436 4.55053 2.18346 4.71113 1.93004 4.85002C1.63147 5.01568 1.31643 5.14974 0.990036 5.25002C0.813277 5.31575 0.628107 5.35615 0.440033 5.37002C0.406034 5.37508 0.371326 5.37211 0.338684 5.36134C0.306043 5.35056 0.276381 5.33229 0.252075 5.30798C0.227769 5.28368 0.209504 5.25402 0.19873 5.22137C0.187957 5.18873 0.184971 5.15402 0.190033 5.12002C0.190033 5.01336 0.26004 4.94336 0.40004 4.91002C0.872504 4.79929 1.33177 4.63838 1.77003 4.43002C1.99107 4.32652 2.20198 4.20265 2.40004 4.06002H0.490036C0.370036 4.06002 0.300034 3.99002 0.300034 3.85002C0.296777 3.82429 0.299449 3.79816 0.307846 3.77363C0.316243 3.74909 0.330143 3.72681 0.34848 3.70847C0.366817 3.69013 0.389115 3.67623 0.413651 3.66784C0.438186 3.65944 0.464309 3.65677 0.490036 3.66002H2.65004V3.32002H0.850037C0.720037 3.32002 0.660034 3.26002 0.660034 3.14002C0.660034 3.02002 0.720037 2.94002 0.850037 2.94002H2.61003V2.55002H0.610031C0.480031 2.55002 0.420044 2.49002 0.420044 2.37002C0.416788 2.34429 0.419459 2.31816 0.427856 2.29363C0.436254 2.26909 0.450154 2.24681 0.468491 2.22847C0.486827 2.21013 0.509111 2.19623 0.533646 2.18784C0.558181 2.17944 0.584304 2.17677 0.610031 2.18002H1.75003L1.44003 1.55002H0.360031C0.230031 1.55002 0.160034 1.49002 0.160034 1.37002C0.160034 1.25002 0.230031 1.19002 0.360031 1.19002H1.20004L0.750031 0.670021C0.737067 0.631071 0.737067 0.588972 0.750031 0.550022C0.750031 0.420022 0.820042 0.350021 0.980042 0.350021C1.00421 0.351148 1.02773 0.358104 1.04863 0.370293C1.06952 0.382482 1.08716 0.399542 1.10004 0.420021C1.26228 0.590328 1.4095 0.77435 1.54004 0.970024C1.56589 1.00555 1.58302 1.04665 1.59004 1.09002C1.59564 1.12312 1.59564 1.15692 1.59004 1.19002H2.10004V0.420021C2.08695 0.391999 2.08091 0.361208 2.08243 0.330318C2.08394 0.299429 2.09297 0.269377 2.10873 0.242771C2.1245 0.216165 2.14653 0.19381 2.1729 0.177647C2.19926 0.161484 2.22918 0.152003 2.26004 0.150024ZM2.26004 2.15002H3.46004L3.75003 1.52002H1.95004L2.26004 2.15002Z" fill="white"/>
</svg>
