<svg width="59" height="67" viewBox="0 0 59 67" fill="none" xmlns="http://www.w3.org/2000/svg">
<path d="M15.6401 56.2097C15.4692 56.1208 15.2745 56.0882 15.084 56.117C14.8935 56.1457 14.7171 56.234 14.5801 56.3694L14.4101 56.5398L10.6301 60.3396C10.5331 60.4349 10.4592 60.5512 10.4141 60.6795C10.3691 60.8078 10.354 60.9444 10.37 61.0794C10.3895 61.2166 10.439 61.3478 10.5151 61.4637C10.5911 61.5795 10.6919 61.6774 10.81 61.7498C15.5966 64.608 21.0552 66.1464 26.6298 66.2083C32.2044 66.2702 37.6958 64.853 42.5446 62.1018C47.3934 59.3507 51.4264 55.3638 54.2327 50.5467C57.039 45.7295 58.5184 40.2544 58.5201 34.6795C58.5276 29.1854 57.098 23.7852 54.3732 19.0144C51.6485 14.2436 47.7233 10.2681 42.9874 7.48318C38.2515 4.69824 32.8695 3.2005 27.3758 3.13846C21.8821 3.07641 16.4677 4.45239 11.6701 7.12967L5.40004 0.52957C5.28217 0.407784 5.13297 0.320944 4.96886 0.278593C4.80475 0.236243 4.63213 0.240283 4.47005 0.289824C4.30709 0.341543 4.16225 0.438557 4.05245 0.569609C3.94265 0.70066 3.87244 0.860072 3.85005 1.02957L1.50005 17.7796L1.30007 19.1995L0.870043 22.1995C0.851519 22.3392 0.865338 22.4815 0.910418 22.615C0.955497 22.7485 1.03064 22.8696 1.13005 22.9695C1.23196 23.0681 1.35574 23.1412 1.49129 23.1829C1.62684 23.2246 1.77032 23.234 1.91005 23.2097L4.76006 22.7596L5.45006 22.6497L6.37004 22.5096L21.9901 20.0198C22.212 19.9853 22.4124 19.8672 22.5501 19.6897C22.5873 19.5442 22.6481 19.4055 22.7301 19.2796C22.7565 19.1422 22.7493 19.0005 22.7093 18.8665C22.6692 18.7324 22.5975 18.6099 22.5 18.5096L16.8501 12.5096C20.1525 10.9922 23.7531 10.2348 27.387 10.2928C31.0209 10.3507 34.5955 11.2226 37.8479 12.8445C41.1003 14.4664 43.9477 16.7968 46.1805 19.6643C48.4133 22.5319 49.9747 25.8636 50.7499 29.4143C51.5251 32.965 51.4943 36.6447 50.6598 40.1819C49.8253 43.7191 48.2083 47.024 45.9278 49.8538C43.6473 52.6836 40.7613 54.9663 37.4822 56.5335C34.2031 58.1007 30.6144 58.9123 26.9801 58.9095C26.5101 58.9095 26.0401 58.9095 25.5701 58.9095H25.1401C24.8067 58.9095 24.4734 58.8796 24.1401 58.8196L23.6901 58.7596L22.6901 58.5994L22.3201 58.5398C21.9001 58.4598 21.4801 58.3798 21.0801 58.2698H21C20.0788 58.0314 19.1709 57.744 18.28 57.4095L18.1701 57.3596C17.7701 57.1996 17.3701 57.0396 16.9901 56.8596L16.8601 56.7996C16.4501 56.6196 16.0401 56.4197 15.6401 56.2097Z" fill="#44F051"/>
</svg>
