<svg width="22" height="39" viewBox="0 0 22 39" fill="none" xmlns="http://www.w3.org/2000/svg">
<path d="M16.61 11.3198V23.4199C16.6061 24.2095 16.8207 24.9845 17.23 25.6597V35.0298C17.23 35.8414 16.9076 36.6195 16.3338 37.1934C15.7599 37.7672 14.9816 38.0899 14.17 38.0899H8.04004C7.22755 38.0899 6.44819 37.7679 5.87274 37.1943C5.29729 36.6208 4.97268 35.8423 4.97003 35.0298V20.3399C4.71073 20.6263 4.39381 20.8545 4.04004 21.0098C3.67558 21.1747 3.28009 21.26 2.88004 21.2598C2.12682 21.2598 1.40446 20.9608 0.871857 20.4282C0.339253 19.8956 0.0400391 19.1731 0.0400391 18.4199V6.31983C0.0400379 5.5744 0.187026 4.83604 0.472595 4.14747C0.758165 3.4589 1.17672 2.83378 1.70428 2.30714C2.23185 1.7805 2.85808 1.36298 3.54715 1.07862C4.23622 0.794267 4.9746 0.648596 5.72003 0.649911H16.4901C17.6618 0.649753 18.8048 1.01209 19.7626 1.68702C20.7204 2.36195 21.446 3.31646 21.84 4.41993C20.3337 4.83986 19.0065 5.74204 18.0619 6.98829C17.1173 8.23454 16.6073 9.75604 16.61 11.3198Z" fill="#F0F1F1"/>
</svg>
