<svg width="15" height="16" viewBox="0 0 15 16" fill="none" xmlns="http://www.w3.org/2000/svg">
<path d="M2.17993 11.6406V15.1406H0.399902V1.43066H5.1499V3C4.86661 4.10287 4.50912 5.18556 4.0799 6.24023C4.68159 7.2367 5.02529 8.36752 5.0799 9.53027C5.0799 10.9903 4.37993 11.7305 2.98993 11.7305C2.71736 11.7319 2.44554 11.7019 2.17993 11.6406ZM3.41992 9.25C3.37285 8.16188 2.9923 7.11455 2.3299 6.25C2.76129 5.23369 3.0961 4.17963 3.3299 3.10059H2.2099V9.78027C2.4041 9.81971 2.60176 9.83938 2.79993 9.83984C2.88059 9.84701 2.96182 9.83725 3.03827 9.81055C3.11472 9.78385 3.18462 9.74137 3.24329 9.68555C3.30195 9.62972 3.34802 9.56234 3.37848 9.4873C3.40894 9.41227 3.42308 9.33092 3.41992 9.25ZM4.30994 14.7402V12.9805H8.41992V11.7607H5.29993V10.0801H8.41992V8.7002H10.4199V10.0801H13.6799V11.7607H10.4199V12.9805H14.2699V14.7402H4.30994ZM12.0999 6.4502V7.16016C12.0919 7.21894 12.0975 7.27864 12.1161 7.33496C12.1347 7.39128 12.166 7.44292 12.2075 7.48535C12.2489 7.52778 12.2995 7.56015 12.3554 7.58008C12.4113 7.6 12.471 7.60721 12.5299 7.60059H13.9899V9.20996H11.9899C11.7499 9.2422 11.5056 9.21818 11.2765 9.13965C11.0474 9.06112 10.8397 8.93053 10.6699 8.75781C10.5001 8.5851 10.3728 8.37496 10.2982 8.14453C10.2235 7.91411 10.2036 7.67013 10.2399 7.43066V6.43066H9.00989C8.88118 7.18139 8.53325 7.87726 8.00989 8.43066C7.47729 9.03743 6.78394 9.48047 6.00989 9.70996L5.00989 8.01074C6.25989 7.66074 7.00993 7.12063 7.11993 6.39062H5.11993V4.7207H8.43994V3.7207H5.67993V2.10059H8.43994V0.890625H10.4399V2.10059H13.6599V3.7207H10.4499V4.7207H14.0999V6.39062L12.0999 6.4502Z" fill="white"/>
</svg>
