<svg width="16" height="16" viewBox="0 0 16 16" fill="none" xmlns="http://www.w3.org/2000/svg">
<path d="M7.77002 7.48047L8.24005 6.74023H6.40002C6.14696 7.05806 5.86943 7.35528 5.57001 7.62988H7.64001V8.87988L6.64001 10.3701C7.24001 10.3035 8.00004 10.1738 8.92004 9.98047V11.6104C8.22004 11.7504 7.38007 11.8903 6.38007 12.0303V13.2402C6.43371 13.727 6.32842 14.2185 6.08002 14.6406C5.92954 14.7766 5.75188 14.8784 5.55878 14.9404C5.36568 15.0025 5.16156 15.0229 4.96002 15H3.25006L2.96002 13.3008L4.20001 13.3604C4.47001 13.3604 4.61005 13.2104 4.61005 12.9004V12.2607C3.36005 12.4107 2.30006 12.5103 1.44006 12.5703L1.06006 10.8506C2.24006 10.8506 3.44004 10.7201 4.67004 10.5801L5.54004 9.30078H3.54004C2.96115 9.76897 2.33433 10.1745 1.67004 10.5107L0.790039 8.80078C2.00691 8.35561 3.12465 7.67612 4.08002 6.80078H1.08002V5.06055H3.45001V3.83984H1.45001V2.2002H3.45001V0.930664H5.45001V2.2002H7.56006V2.86035L8.75006 3.30078C8.44296 3.90159 8.07786 4.47018 7.66003 5H8.42004V6.32031C9.11207 4.59023 9.56292 2.77283 9.76001 0.919922L11.65 1.12012C11.5 1.93012 11.38 2.59012 11.27 3.12012H14.9901V4.9502H14.39C14.4223 7.19139 13.9038 9.40642 12.8801 11.4004C12.8801 11.4804 13.1701 11.7707 13.7401 12.2607C14.1634 12.6464 14.6298 12.9819 15.1301 13.2607L13.98 15.0703C13.0675 14.4466 12.2776 13.6598 11.65 12.75C10.8897 13.7388 9.90624 14.5341 8.78003 15.0703L7.42004 13.3203C8.65978 12.968 9.76449 12.2505 10.59 11.2607C10.0459 10.308 9.66724 9.26969 9.47003 8.19043C9.31779 8.5945 9.10905 8.97483 8.85004 9.32031L7.77002 7.48047ZM6.55005 3.83984H5.47003V5.06055H5.63007C5.98747 4.69475 6.29663 4.28406 6.55005 3.83984ZM10.79 4.95996L10.61 5.77051C10.6745 7.16783 11.0466 8.53368 11.7 9.77051C12.2822 8.23337 12.5837 6.60364 12.59 4.95996H10.79Z" fill="white"/>
</svg>
