<svg width="6" height="6" viewBox="0 0 6 6" fill="none" xmlns="http://www.w3.org/2000/svg">
<path d="M1.37003 0.0902491C1.42213 0.0740836 1.47789 0.0740836 1.53 0.0902491C1.55455 0.111358 1.57438 0.138102 1.58816 0.167397C1.60195 0.196693 1.6094 0.228777 1.61002 0.261147C1.61228 0.297779 1.61228 0.333891 1.61002 0.370522L1.55002 0.540444H5.13003C5.15783 0.535513 5.18638 0.537182 5.21341 0.545327C5.24044 0.553472 5.26517 0.567852 5.28561 0.587319C5.30605 0.606787 5.32163 0.631034 5.33108 0.657632C5.34054 0.684229 5.34357 0.712639 5.34 0.74064C5.34318 0.768991 5.33996 0.797698 5.33054 0.824624C5.32111 0.85155 5.30573 0.87574 5.28555 0.895913C5.26538 0.916086 5.24088 0.931406 5.21396 0.940835C5.18703 0.950264 5.15839 0.953782 5.13003 0.950601H3.25998V1.9506H4.81003C4.94003 1.9506 5.00003 2.0208 5.00003 2.1508C5.00003 2.2808 4.94003 2.36076 4.81003 2.36076H3.25998V3.73087H5.34C5.49 3.73087 5.56003 3.80083 5.56003 3.94083C5.56003 4.08083 5.49 4.18107 5.34 4.18107H3.25998V5.32072C3.26344 5.35133 3.25979 5.38257 3.2493 5.41154C3.2388 5.4405 3.22176 5.46641 3.19949 5.48771C3.17723 5.50901 3.15034 5.52441 3.12094 5.53361C3.09154 5.5428 3.06043 5.54526 3.03 5.54044C3.00069 5.54396 2.97099 5.54065 2.94321 5.53068C2.91543 5.5207 2.89034 5.50418 2.86996 5.48283C2.84958 5.46148 2.83445 5.43585 2.82577 5.40763C2.8171 5.37942 2.81511 5.34983 2.81998 5.32072V4.24064H0.399993C0.259993 4.24064 0.190032 4.16041 0.190032 4.00041C0.186852 3.97205 0.190064 3.94335 0.199493 3.91642C0.208922 3.8895 0.224303 3.8653 0.244476 3.84513C0.264649 3.82496 0.289083 3.80964 0.316009 3.80021C0.342935 3.79078 0.371643 3.78726 0.399993 3.79044H0.949981V2.37052C0.949981 2.13052 1.07999 2.01115 1.32999 2.01115H2.85001V1.01115H1.38003L1.19998 1.30119C1.03539 1.53287 0.847773 1.74695 0.639984 1.94083C0.594075 1.98978 0.535082 2.0241 0.470001 2.04044C0.320001 2.04044 0.24002 1.97048 0.24002 1.83048C0.22627 1.78824 0.22627 1.74284 0.24002 1.7006C0.448985 1.51818 0.633799 1.30971 0.790008 1.08048C0.969338 0.821939 1.11075 0.539231 1.20999 0.24064C1.21254 0.199962 1.23055 0.16207 1.26028 0.134194C1.29002 0.106319 1.32927 0.0901694 1.37003 0.0902491ZM2.80002 2.43107H1.54001C1.43001 2.43107 1.37003 2.49076 1.37003 2.61076V3.80119H2.85001L2.80002 2.43107Z" fill="white"/>
</svg>
