<svg width="15" height="16" viewBox="0 0 15 16" fill="none" xmlns="http://www.w3.org/2000/svg">
<path d="M10.11 11.3203C11.6731 11.9082 13.2051 12.5757 14.7 13.3203L13.7 15.1699C12.1313 14.2154 10.4935 13.3797 8.79999 12.6699L9.79999 11.3398H5.62L6.77997 12.4707C5.25236 13.6628 3.52094 14.5674 1.66998 15.1406L0.75 13.2305C2.33576 12.8662 3.84527 12.2258 5.20996 11.3398H0.599976V9.62012H1.84998V2.53027H5.13V0.980469H6.96997V2.53027H8.44V0.980469H10.28V2.53027H13.68V9.62012H14.85V11.3203H10.11ZM5.10999 6.01074V4.16016H3.69995V6.01074H5.10999ZM5.10999 9.60059V7.60059H3.69995V9.60059H5.10999ZM8.41998 6.01074V4.16016H6.94995V6.01074H8.41998ZM6.94995 7.58008V9.58008H8.41998V7.58008H6.94995ZM11.8199 6.01074V4.16016H10.2599V6.01074H11.8199ZM11.8199 9.60059V7.60059H10.2599V9.60059H11.8199Z" fill="white"/>
</svg>
