<svg width="2" height="2" viewBox="0 0 2 2" fill="none" xmlns="http://www.w3.org/2000/svg">
<path d="M1.75989 0.820453C1.76171 0.906093 1.74578 0.991281 1.71307 1.07045C1.68037 1.14962 1.63161 1.22102 1.56989 1.28041C1.50911 1.34376 1.43619 1.39448 1.35541 1.42885C1.27463 1.46322 1.1877 1.48074 1.09992 1.48061C0.926464 1.47558 0.761495 1.40409 0.638795 1.28139C0.516094 1.15869 0.444973 0.993904 0.439942 0.820453C0.439813 0.732666 0.457448 0.645371 0.491822 0.564593C0.526196 0.483816 0.576546 0.411502 0.639893 0.350726C0.699283 0.288997 0.770865 0.239873 0.850037 0.207172C0.929209 0.17447 1.01428 0.158471 1.09992 0.160297C1.18696 0.158947 1.27338 0.175458 1.35407 0.208148C1.43475 0.240838 1.50808 0.289169 1.56964 0.350726C1.6312 0.412284 1.67971 0.485862 1.7124 0.566547C1.74509 0.647231 1.76124 0.733408 1.75989 0.820453Z" fill="white"/>
</svg>
