<svg width="7" height="6" viewBox="0 0 7 6" fill="none" xmlns="http://www.w3.org/2000/svg">
<path d="M1.85002 2.2002H5.44999C5.71999 2.2002 5.85002 2.32031 5.85002 2.57031V4.37988C5.85002 4.62988 5.71999 4.76074 5.44999 4.76074H4.66002C5.14627 4.91625 5.64025 5.04607 6.14 5.15039C6.24 5.19039 6.29002 5.25008 6.29002 5.33008C6.29522 5.36145 6.29284 5.39355 6.28312 5.42383C6.2734 5.45411 6.2566 5.4824 6.23411 5.50488C6.21163 5.52737 6.18413 5.54399 6.15385 5.55371C6.12357 5.56343 6.09142 5.56574 6.06004 5.56055C5.7571 5.51062 5.45923 5.43317 5.17003 5.33008C4.9013 5.25443 4.64015 5.1542 4.39 5.03027C4.36338 5.01174 4.34084 4.98844 4.32365 4.96094C4.30646 4.93344 4.29502 4.90216 4.29002 4.87012C4.28259 4.85273 4.27879 4.83433 4.27879 4.81543C4.27879 4.79652 4.28259 4.77813 4.29002 4.76074H2.93004C2.94606 4.77418 2.95886 4.79053 2.96751 4.80957C2.97616 4.82861 2.98043 4.84921 2.98002 4.87012C2.98057 4.91386 2.96863 4.95694 2.9456 4.99414C2.92257 5.03134 2.88942 5.06106 2.85002 5.08008C2.5867 5.18111 2.31587 5.26159 2.04002 5.32031C1.73993 5.39566 1.43623 5.45542 1.13005 5.5C1.10191 5.49891 1.0743 5.49198 1.04905 5.47949C1.02381 5.467 1.0015 5.44945 0.983564 5.42773C0.965627 5.40602 0.952429 5.38066 0.944928 5.35352C0.937428 5.32637 0.9358 5.29835 0.940046 5.27051C0.940046 5.14051 0.990019 5.07055 1.10002 5.06055C1.43002 5.06055 1.69004 4.98043 1.87004 4.94043L2.63005 4.76074H1.85002C1.79741 4.76859 1.74369 4.76406 1.69298 4.74805C1.64226 4.73203 1.59585 4.7046 1.55729 4.66797C1.51873 4.63134 1.48903 4.58596 1.47044 4.53613C1.45185 4.4863 1.44485 4.43282 1.44999 4.37988V2.57031C1.48999 2.32031 1.63002 2.2002 1.85002 2.2002ZM1.92003 0.270508H5.36003C5.59003 0.270508 5.69999 0.370078 5.69999 0.580078V0.900391H6.14C6.26 0.900391 6.31004 0.900547 6.31004 1.06055C6.31004 1.22055 6.31 1.25 6.14 1.25H5.69999V1.58984C5.69999 1.80984 5.59003 1.91992 5.36003 1.91992H1.92003C1.69003 1.91992 1.58 1.80984 1.58 1.58984V1.25H1.16002C1.05002 1.25 0.990033 1.19055 0.990033 1.06055C0.990033 0.930547 1.05002 0.900391 1.16002 0.900391H1.58V0.580078C1.62 0.370078 1.73 0.320312 1.96 0.320312L1.92003 0.270508ZM1.92003 2.99023H5.46V2.70996C5.46 2.61996 5.46002 2.57031 5.35002 2.57031H2.03001C1.95001 2.57031 1.92003 2.56996 1.92003 2.70996V2.99023ZM1.92003 3.64062H5.46V3.32031H1.92003V3.64062ZM5.35002 4.37988C5.43002 4.37988 5.46 4.38 5.46 4.25V3.9707H1.92003V4.25C1.92003 4.33 1.92001 4.37988 2.03001 4.37988H5.35002ZM2.03001 0.900391H3.47001V0.620117H2.15001C2.07001 0.620117 2.03001 0.620742 2.03001 0.760742V0.900391ZM3.47001 1.57031V1.25H2.03001V1.41016C2.03001 1.52016 2.03001 1.57031 2.15001 1.57031H3.47001ZM3.87004 0.570312V0.850586H5.33V0.709961C5.33 0.609961 5.33 0.570312 5.21 0.570312H3.87004ZM5.21 1.57031C5.29 1.57031 5.33 1.57016 5.33 1.41016V1.25H3.85002V1.57031H5.21Z" fill="white"/>
</svg>
