<svg width="5" height="6" viewBox="0 0 5 6" fill="none" xmlns="http://www.w3.org/2000/svg">
<path d="M0.359985 5.32066V0.660507H2.07996C2.36898 0.649737 2.6567 0.704647 2.92163 0.820663C3.18656 0.936679 3.42189 1.11073 3.60999 1.33043C3.99944 1.79834 4.20559 2.39177 4.19 3.00035C4.20813 3.60981 3.99357 4.20348 3.58997 4.66051C3.37147 4.88728 3.10625 5.06411 2.81268 5.17808C2.51912 5.29206 2.20423 5.34059 1.88995 5.32066H0.359985ZM1.21997 4.64098H1.91998C2.10812 4.6479 2.29543 4.6128 2.46838 4.53844C2.64133 4.46407 2.79559 4.35162 2.91998 4.21031C3.20563 3.85526 3.34512 3.40488 3.31 2.95055C3.32451 2.53736 3.20524 2.13036 2.96997 1.79039C2.86903 1.64286 2.73304 1.52281 2.57422 1.44078C2.41539 1.35875 2.23873 1.31758 2.06 1.32066H1.25995L1.21997 4.64098Z" fill="white"/>
</svg>
