<svg width="3" height="3" viewBox="0 0 3 3" fill="none" xmlns="http://www.w3.org/2000/svg">
<path d="M2.44002 1.98986H2.83998C2.82233 2.21137 2.72248 2.41834 2.56001 2.56994C2.40494 2.7108 2.20644 2.79452 1.99733 2.80724C1.78822 2.81997 1.581 2.76126 1.40999 2.64025C1.27181 2.52152 1.16529 2.3699 1.09999 2.19982C1.02718 2.00122 0.989958 1.79123 0.990006 1.57971C0.976896 1.26568 1.06835 0.956299 1.25002 0.699823C1.32394 0.603457 1.41681 0.523596 1.5229 0.464471C1.629 0.405346 1.74605 0.368251 1.8669 0.356073C1.98774 0.343895 2.10978 0.356415 2.22554 0.393182C2.3413 0.42995 2.44832 0.490262 2.53999 0.56994C2.71239 0.737107 2.81887 0.960614 2.83998 1.19982H2.44002C2.36668 0.839823 2.20664 0.659784 1.95998 0.659784C1.88375 0.657365 1.80843 0.676469 1.74287 0.715448C1.67732 0.754427 1.62426 0.811381 1.58998 0.87951C1.48687 1.08006 1.43856 1.30468 1.44997 1.5299C1.43342 1.75673 1.48572 1.98366 1.59999 2.18029C1.63608 2.24693 1.68952 2.30269 1.75465 2.34142C1.81979 2.38016 1.8942 2.40014 1.96999 2.40002C2.03054 2.40316 2.09101 2.39209 2.14656 2.36779C2.20211 2.34349 2.25121 2.30697 2.28999 2.26037C2.36348 2.18558 2.41534 2.09177 2.44002 1.98986Z" fill="white"/>
</svg>
