<svg width="2" height="4" viewBox="0 0 2 4" fill="none" xmlns="http://www.w3.org/2000/svg">
<path d="M1.54002 2.37999H1.94002C1.9202 2.6038 1.82087 2.81311 1.66002 2.96999C1.57696 3.04735 1.47943 3.10749 1.37302 3.14697C1.26661 3.18644 1.15343 3.20446 1.04002 3.19999C0.85015 3.20971 0.662801 3.15316 0.510024 3.03999C0.369485 2.91935 0.262671 2.7643 0.200027 2.58999C0.121598 2.39295 0.0841685 2.18199 0.0900263 1.96999C0.0729607 1.65549 0.164775 1.34472 0.350021 1.08999C0.428774 0.97911 0.534173 0.889842 0.656509 0.830422C0.778845 0.771001 0.914177 0.743341 1.05002 0.749993C1.15813 0.744845 1.26617 0.761689 1.36758 0.799504C1.469 0.837319 1.56167 0.89532 1.64001 0.969994C1.81028 1.13462 1.91659 1.35432 1.94002 1.58999H1.54002C1.47336 1.22999 1.31336 1.04999 1.06003 1.04999C0.981752 1.05011 0.904992 1.07159 0.838027 1.11213C0.771063 1.15266 0.71643 1.2107 0.680023 1.27999C0.584523 1.48288 0.539898 1.70598 0.550018 1.92999C0.538613 2.15521 0.586908 2.37944 0.690017 2.57999C0.728546 2.64673 0.783928 2.70217 0.850616 2.74078C0.917304 2.77939 0.992964 2.79981 1.07002 2.79999C1.13117 2.80044 1.19164 2.7872 1.24701 2.76124C1.30238 2.73529 1.35124 2.69728 1.39001 2.64999C1.4635 2.57521 1.51535 2.4819 1.54002 2.37999Z" fill="white"/>
</svg>
