<svg width="185" height="6" viewBox="0 0 185 6" fill="none" xmlns="http://www.w3.org/2000/svg">
<path d="M181.85 5.03003H3.0801C2.48336 5.03003 1.91106 4.79305 1.4891 4.37109C1.06715 3.94914 0.8301 3.37677 0.8301 2.78003C0.828783 2.48371 0.886005 2.19015 0.998489 1.91602C1.11097 1.64188 1.2765 1.39261 1.48556 1.18262C1.69463 0.972625 1.94311 0.806081 2.21674 0.692383C2.49038 0.578685 2.78378 0.520017 3.0801 0.52002H181.85C182.449 0.52002 183.024 0.758297 183.448 1.18213C183.872 1.60596 184.11 2.18064 184.11 2.78003C184.107 3.37768 183.868 3.94991 183.445 4.37158C183.021 4.79325 182.448 5.03004 181.85 5.03003Z" fill="#44F051"/>
</svg>
