<svg width="14" height="15" viewBox="0 0 14 15" fill="none" xmlns="http://www.w3.org/2000/svg">
<path d="M0.149902 0.220703H13.5799V14.1406H11.7099V13.7002H2.0199V14.1406H0.149902V0.220703ZM7.65991 1.70996V2.19043H11.2599V3.25H7.63989V3.7207H10.9299V7.18066H10.3699C10.7799 7.63066 11.1099 8.00031 11.3699 8.32031L10.2899 8.9502L9.94989 8.44043H9.69989V9.04004H11.3899V10.2207H9.69989V10.7207C9.69989 11.5407 9.31989 11.9502 8.56989 11.9502H6.84991L6.62994 10.7305L7.75989 10.8203H7.81989C7.98989 10.8203 8.06989 10.7205 8.06989 10.5205V10.2207H4.06989C4.73385 10.3459 5.38372 10.5362 6.00989 10.79L5.3299 11.8906C4.64087 11.5594 3.93299 11.2688 3.2099 11.0205L3.88989 10.2207H2.34991V9.04004H8.02991V8.55078C7.06991 8.61745 5.29991 8.66686 2.71991 8.7002L2.49994 7.55078C3.43994 7.59078 4.57992 7.61035 5.91992 7.61035V7.16992H2.74994V3.70996H5.91992V3.24023H2.43994V2.18066H5.91992V1.7002H2.0199V12.2402H11.7099V1.7002L7.65991 1.70996ZM4.34991 4.58984V5.08984H5.91992V4.58984H4.34991ZM4.34991 5.77051V6.31055H5.91992V5.77051H4.34991ZM7.63989 4.58984V5.08984H9.3299V4.58984H7.63989ZM7.63989 5.83008V6.31055H9.3299V5.83008H7.63989ZM7.63989 7.18066V7.61035L9.31989 7.56055L9.00989 7.18066H7.63989Z" fill="white"/>
</svg>
