<svg width="3" height="5" viewBox="0 0 3 5" fill="none" xmlns="http://www.w3.org/2000/svg">
<path d="M3.00995 4.72997C3.00995 4.85997 2.92995 4.91997 2.75995 4.91997H0.949953C0.759953 4.91997 0.659945 4.84997 0.659945 4.70997C0.702054 4.55187 0.766005 4.40041 0.849947 4.25997C0.98575 4.01957 1.14306 3.79197 1.31995 3.57997L2.08995 2.65997C2.33524 2.35999 2.48809 1.99521 2.52994 1.60997C2.53137 1.5229 2.51529 1.43642 2.48265 1.35568C2.45001 1.27494 2.40149 1.20159 2.33995 1.13997C2.20856 1.02234 2.03608 0.961259 1.85994 0.969972C1.74792 0.966701 1.63649 0.987301 1.53304 1.0304C1.42959 1.07351 1.33651 1.13813 1.25995 1.21997C1.11058 1.38792 1.02864 1.60521 1.02994 1.82997C1.02994 1.98997 0.949943 2.05997 0.829943 2.05997C0.709943 2.05997 0.619952 1.98997 0.619952 1.82997C0.610229 1.66449 0.635481 1.49882 0.694063 1.34375C0.752645 1.18868 0.843239 1.04769 0.959948 0.929971C1.07825 0.813456 1.21909 0.722316 1.37384 0.662133C1.5286 0.601951 1.694 0.573991 1.85994 0.579969C2.00892 0.57405 2.15754 0.598482 2.29679 0.651773C2.43603 0.705063 2.563 0.786102 2.66995 0.88997C2.77403 0.994711 2.8553 1.11986 2.90865 1.25754C2.962 1.39522 2.98627 1.54245 2.97995 1.68997C2.9373 2.06 2.78394 2.40853 2.53995 2.68997C2.47995 2.76997 2.22995 3.07997 1.76995 3.59997C1.52918 3.86862 1.33028 4.17203 1.17995 4.49997H2.75995C2.92995 4.53997 3.00995 4.59997 3.00995 4.72997Z" fill="white"/>
</svg>
