<svg width="6" height="6" viewBox="0 0 6 6" fill="none" xmlns="http://www.w3.org/2000/svg">
<path d="M1.28996 0.140037C1.34224 0.125033 1.39768 0.125033 1.44996 0.140037C1.47451 0.161146 1.49433 0.1872 1.50811 0.216495C1.5219 0.24579 1.52933 0.277668 1.52995 0.310039C1.53222 0.346671 1.53222 0.383404 1.52995 0.420036L1.46995 0.580036H5.04995C5.10565 0.580036 5.15907 0.602161 5.19845 0.641544C5.23783 0.680926 5.25996 0.734343 5.25996 0.790039C5.25996 0.845734 5.23783 0.899147 5.19845 0.938529C5.15907 0.977912 5.10565 1.00004 5.04995 1.00004H3.17996V2.00004H4.72996C4.85996 2.00004 4.91996 2.07004 4.91996 2.21004C4.91996 2.35004 4.85996 2.42004 4.72996 2.42004H3.17996V3.79004H5.25996C5.40996 3.79004 5.47996 3.86004 5.47996 4.00004C5.47996 4.14004 5.40996 4.23004 5.25996 4.23004H3.17996V5.32004C3.17996 5.46004 3.09996 5.53004 2.94996 5.53004C2.92161 5.53322 2.8929 5.52997 2.86598 5.52055C2.83905 5.51112 2.81459 5.49575 2.79441 5.47557C2.77424 5.4554 2.75887 5.43094 2.74945 5.40402C2.74002 5.37709 2.73677 5.34839 2.73995 5.32004V4.32004H0.319956C0.179956 4.32004 0.10995 4.25004 0.10995 4.09004C0.106769 4.06169 0.110012 4.03298 0.119441 4.00606C0.128869 3.97913 0.144251 3.95467 0.164423 3.9345C0.184596 3.91433 0.209046 3.89896 0.235972 3.88953C0.262898 3.8801 0.291605 3.87686 0.319956 3.88004H0.849955V2.43004C0.845082 2.37936 0.851642 2.32824 0.869166 2.28045C0.88669 2.23265 0.914724 2.1894 0.951197 2.15389C0.987671 2.11837 1.03166 2.0915 1.07991 2.07526C1.12815 2.05902 1.17943 2.05382 1.22996 2.06004H2.71995V1.06004H1.24995L1.06996 1.35004C0.90537 1.58172 0.717749 1.79615 0.509959 1.99004C0.464268 2.0373 0.404737 2.06882 0.339961 2.08004C0.189961 2.08004 0.10995 2.01004 0.10995 1.88004C0.111342 1.83228 0.128982 1.78642 0.159953 1.75004C0.368917 1.56761 0.553747 1.35926 0.709956 1.13004C0.889286 0.871494 1.03072 0.58863 1.12995 0.290039C1.12991 0.26947 1.1341 0.249111 1.14225 0.230228C1.15041 0.211345 1.16236 0.194342 1.17736 0.180274C1.19237 0.166207 1.2101 0.155374 1.22947 0.148452C1.24884 0.14153 1.26943 0.138666 1.28996 0.140037ZM2.71995 2.48004H1.45996C1.34996 2.48004 1.28996 2.54004 1.28996 2.66004V3.85004H2.71995V2.48004Z" fill="white"/>
</svg>
