<svg width="3" height="3" viewBox="0 0 3 3" fill="none" xmlns="http://www.w3.org/2000/svg">
<path d="M2.47999 0.44043V1.9707C2.48322 2.13346 2.45956 2.29513 2.40999 2.4502C2.35016 2.56853 2.25605 2.66638 2.13997 2.73047C1.99292 2.82093 1.82253 2.86602 1.64998 2.86035C1.48331 2.86427 1.31833 2.8261 1.17 2.75C1.05115 2.68489 0.956445 2.58315 0.899977 2.45996C0.843196 2.31341 0.815989 2.15711 0.81996 2V0.44043H1.25996V1.9707C1.25996 2.1807 1.25997 2.31988 1.38997 2.37988C1.48116 2.44728 1.59157 2.48438 1.70497 2.48438C1.81837 2.48438 1.92878 2.44728 2.01997 2.37988C2.06653 2.32512 2.10125 2.26221 2.1219 2.19336C2.14255 2.12451 2.1487 2.05182 2.13997 1.98047V0.450195L2.47999 0.44043Z" fill="white"/>
</svg>
