<svg width="2" height="5" viewBox="0 0 2 5" fill="none" xmlns="http://www.w3.org/2000/svg">
<path d="M1.77997 4.74023C1.77997 4.89023 1.70995 4.9707 1.56995 4.9707C1.42995 4.9707 1.37 4.89023 1.37 4.74023V1.23047C1.21993 1.35744 1.04159 1.44637 0.849976 1.49023C0.689976 1.49023 0.619995 1.42027 0.619995 1.28027C0.619995 1.14027 0.669968 1.15035 0.779968 1.11035C1.03725 1.03536 1.26237 0.87689 1.41998 0.660156C1.44264 0.624636 1.47361 0.595123 1.51019 0.574219C1.54677 0.553315 1.5879 0.541529 1.63 0.540039C1.73 0.540039 1.77997 0.539922 1.77997 0.669922V4.74023Z" fill="white"/>
</svg>
