<svg width="16" height="16" viewBox="0 0 16 16" fill="none" xmlns="http://www.w3.org/2000/svg">
<path d="M7.68993 7.51998L8.15993 6.77998H6.31993C6.06963 7.10018 5.79191 7.39797 5.48993 7.66998H7.55994V8.92998L6.55994 10.42C7.15994 10.35 7.91993 10.22 8.82993 10.03V11.66C8.13993 11.8 7.29993 11.94 6.29993 12.08V13.32C6.35432 13.81 6.24911 14.3045 5.99992 14.73C5.84945 14.866 5.67177 14.9684 5.47867 15.0305C5.28557 15.0926 5.08147 15.1128 4.87993 15.09H3.20993L2.84993 13.32L4.08994 13.38C4.35994 13.38 4.49992 13.22 4.49992 12.92V12.32C3.24992 12.48 2.18993 12.58 1.32993 12.64L0.949936 10.92C2.12994 10.92 3.32994 10.79 4.55994 10.65L5.42993 9.36998H3.42993C2.85104 9.83817 2.22422 10.2438 1.55994 10.58L0.679932 8.86998C1.8984 8.42814 3.01678 7.74828 3.96992 6.86998H0.969925V5.10998H3.33994V3.88998H1.33994V2.24998H3.33994V0.97998H5.33994V2.24998H7.44994V2.90998L8.63992 3.34998C8.32909 3.94865 7.96425 4.51767 7.54993 5.04998H8.30994V6.40998C9.00196 4.6799 9.45285 2.86288 9.64993 1.00998L11.5299 1.19998C11.3899 2.01998 11.2699 2.67998 11.1599 3.19998H14.8799V5.02998H14.2799C14.3337 7.25775 13.8428 9.46498 12.8499 11.46C12.8499 11.54 13.1399 11.83 13.7099 12.32C14.1333 12.7056 14.5997 13.0412 15.0999 13.32L13.9499 15.13C13.037 14.5034 12.2443 13.7176 11.6099 12.81C10.8557 13.8008 9.87498 14.5963 8.74992 15.13L7.35992 13.32C8.59351 12.9869 9.69815 12.2899 10.5299 11.32C9.98441 10.3715 9.60559 9.33651 9.40993 8.25998C9.24105 8.66853 9.01184 9.04944 8.72993 9.38998L7.68993 7.51998ZM6.46992 3.88998H5.38992V5.10998H5.54993C5.90733 4.74419 6.21651 4.33419 6.46992 3.88998ZM10.7099 5.00998L10.5299 5.81998C10.5957 7.21583 10.9643 8.58068 11.6099 9.81998C12.1959 8.28392 12.4975 6.65403 12.4999 5.00998H10.7099Z" fill="white"/>
</svg>
