<svg width="13" height="16" viewBox="0 0 13 16" fill="none" xmlns="http://www.w3.org/2000/svg">
<path d="M6.20001 15.5796C4.5875 15.5796 3.04101 14.939 1.90079 13.7988C0.760566 12.6586 0.119995 11.1125 0.119995 9.5V6.5C0.119995 4.88748 0.760566 3.3409 1.90079 2.20068C3.04101 1.06046 4.5875 0.419922 6.20001 0.419922C7.81253 0.419922 9.35898 1.06046 10.4992 2.20068C11.6394 3.3409 12.28 4.88748 12.28 6.5V9.5C12.28 10.2984 12.1227 11.089 11.8172 11.8267C11.5117 12.5643 11.0638 13.2342 10.4992 13.7988C9.93463 14.3634 9.26439 14.8116 8.52673 15.1172C7.78907 15.4227 6.99845 15.5796 6.20001 15.5796Z" fill="#F0F1F1"/>
</svg>
