<svg width="15" height="16" viewBox="0 0 15 16" fill="none" xmlns="http://www.w3.org/2000/svg">
<path d="M10.03 11.32C11.3633 11.8066 12.8934 12.4733 14.62 13.32L13.62 15.18C12.0503 14.2275 10.4125 13.3919 8.72002 12.68L9.72002 11.35H5.54002L6.70003 12.48C5.17242 13.6721 3.44098 14.5767 1.59003 15.15L0.670029 13.23C2.25889 12.865 3.76944 12.2181 5.13002 11.32H0.52002V9.61998H1.75002V2.52998H5.03001V0.97998H6.85002V2.52998H8.32002V0.97998H10.16V2.52998H13.56V9.61998H14.72V11.32H10.03ZM5.03001 6.00998V4.17998H3.62003V6.02998L5.03001 6.00998ZM5.03001 9.59998V7.59998H3.62003V9.59998H5.03001ZM8.34003 6.00998V4.17998H6.85002V6.02998L8.34003 6.00998ZM6.85002 7.59998V9.59998H8.32002V7.59998H6.85002ZM11.72 6.02998V4.17998H10.16V6.02998H11.72ZM11.72 9.61998V7.61998H10.16V9.61998H11.72Z" fill="white"/>
</svg>
