<svg width="6" height="1" viewBox="0 0 6 1" fill="none" xmlns="http://www.w3.org/2000/svg">
<path d="M5.69997 0.32048C5.72832 0.317299 5.75703 0.320816 5.78396 0.330245C5.81088 0.339674 5.83538 0.354994 5.85555 0.375167C5.87572 0.39534 5.8911 0.419531 5.90053 0.446456C5.90996 0.473382 5.91317 0.50209 5.90999 0.530441C5.90999 0.690441 5.83997 0.760909 5.69997 0.760909H0.849996C0.709996 0.760909 0.639974 0.690441 0.639974 0.530441C0.636793 0.50209 0.640067 0.473382 0.649496 0.446456C0.658924 0.419531 0.674306 0.39534 0.694479 0.375167C0.714651 0.354994 0.739086 0.339674 0.766012 0.330245C0.792937 0.320816 0.821645 0.317299 0.849996 0.32048H5.69997Z" fill="white"/>
</svg>
