<svg width="15" height="16" viewBox="0 0 15 16" fill="none" xmlns="http://www.w3.org/2000/svg">
<path d="M2.10007 11.69V15.19H0.320068V1.47996H5.07007V3.03996C4.78992 4.15679 4.43238 5.25277 4.00006 6.31996C4.60329 7.31208 4.94719 8.44005 5.00006 9.59996C5.00006 11.07 4.30007 11.81 2.90007 11.81C2.62965 11.8011 2.36118 11.7608 2.10007 11.69ZM3.34007 9.31996C3.28796 8.23285 2.90795 7.18698 2.25006 6.31996C2.68146 5.30365 3.01627 4.249 3.25006 3.16996H2.13007V9.84996C2.32427 9.8894 2.5219 9.9095 2.72006 9.90996C2.80072 9.91713 2.88198 9.90702 2.95844 9.88032C3.03489 9.85362 3.10477 9.81094 3.16344 9.75512C3.2221 9.69929 3.26819 9.63161 3.29865 9.55658C3.3291 9.48154 3.34323 9.40088 3.34007 9.31996ZM4.23007 14.81V13.03H8.34007V11.81H5.22006V10.13H8.34007V8.74996H10.3401V10.13H13.6001V11.81H10.3501V13.03H14.2001V14.79L4.23007 14.81ZM12.0201 6.51996V7.22996C12.0117 7.28838 12.0171 7.34793 12.0357 7.40392C12.0544 7.4599 12.0858 7.51077 12.1275 7.55249C12.1693 7.59422 12.2201 7.62565 12.2761 7.64431C12.3321 7.66296 12.3917 7.66832 12.4501 7.65996H13.9101V9.27996H11.9101C11.6704 9.31008 11.4271 9.28451 11.1989 9.20524C10.9708 9.12597 10.764 8.99513 10.5947 8.8229C10.4254 8.65068 10.2981 8.44171 10.2227 8.21226C10.1473 7.9828 10.1259 7.73905 10.1601 7.49996V6.49996H8.85007C8.71688 7.24921 8.36955 7.94386 7.85007 8.49996C7.3157 9.10466 6.62298 9.548 5.85007 9.77996L4.85007 8.07996C6.10007 7.72996 6.85007 7.18996 6.96007 6.45996H4.96007V4.80996H8.28006V3.80996H5.52007V2.16996H8.28006V0.959961H10.2801V2.16996H13.5001V3.77996H10.2801V4.77996H13.9201V6.44996L12.0201 6.51996Z" fill="white"/>
</svg>
