<svg width="185" height="6" viewBox="0 0 185 6" fill="none" xmlns="http://www.w3.org/2000/svg">
<path d="M181.85 5.14016H3.1C2.50326 5.14016 1.93095 4.90294 1.50899 4.48098C1.08704 4.05902 0.849998 3.4869 0.849998 2.89016C0.848674 2.59431 0.905973 2.30119 1.01858 2.02761C1.13118 1.75403 1.29687 1.50536 1.50606 1.29617C1.71526 1.08697 1.96381 0.92122 2.23739 0.808616C2.51097 0.696012 2.80415 0.638835 3.1 0.640159H181.85C182.447 0.640159 183.019 0.877138 183.441 1.29909C183.863 1.72105 184.1 2.29342 184.1 2.89016C184.1 3.4869 183.863 4.05902 183.441 4.48098C183.019 4.90294 182.447 5.14016 181.85 5.14016Z" fill="#44F051"/>
</svg>
