<svg width="6" height="6" viewBox="0 0 6 6" fill="none" xmlns="http://www.w3.org/2000/svg">
<path d="M2.33997 0.109873C2.36797 0.106303 2.39644 0.109209 2.42303 0.118662C2.44963 0.128115 2.47364 0.14412 2.4931 0.164561C2.51257 0.185001 2.52695 0.209799 2.5351 0.236826C2.54324 0.263853 2.54491 0.292041 2.53998 0.319834V1.08937H3.25995V0.319834C3.25995 0.264139 3.28209 0.210779 3.32147 0.171397C3.36085 0.132014 3.41428 0.109873 3.46997 0.109873C3.52567 0.109873 3.57909 0.132014 3.61847 0.171397C3.65785 0.210779 3.67999 0.264139 3.67999 0.319834V1.08937H4.19C4.18157 1.06679 4.18157 1.0426 4.19 1.02003C4.35919 0.799606 4.50967 0.565266 4.63995 0.319834C4.65115 0.287369 4.67315 0.25991 4.70227 0.241709C4.73139 0.223509 4.7659 0.21606 4.79999 0.220225C4.85699 0.22135 4.91246 0.238498 4.95996 0.270029C4.98028 0.280577 4.99747 0.295636 5.00977 0.314951C5.02206 0.334267 5.02902 0.356529 5.02997 0.379404C5.03809 0.422357 5.03809 0.467311 5.02997 0.510264C4.92328 0.715972 4.79595 0.909405 4.64996 1.08937H5.42999C5.55999 1.08937 5.62 1.15003 5.62 1.27003C5.62 1.39003 5.55999 1.44972 5.42999 1.44972H4.22998L3.94 2.08937H5.19995C5.32995 2.08937 5.38995 2.15003 5.38995 2.27003C5.38995 2.39003 5.32995 2.44972 5.19995 2.44972H3.10999V2.85011H5.02997C5.0557 2.84685 5.08185 2.84952 5.10638 2.85792C5.13092 2.86632 5.15317 2.87962 5.17151 2.89796C5.18985 2.9163 5.20376 2.93885 5.21216 2.96339C5.22056 2.98792 5.22323 3.01383 5.21997 3.03956C5.21997 3.15956 5.15997 3.22022 5.02997 3.22022H3.10999V3.60987H5.40997C5.4357 3.60662 5.46185 3.60929 5.48639 3.61769C5.51092 3.62608 5.53318 3.64036 5.55151 3.6587C5.56985 3.67704 5.58377 3.69862 5.59216 3.72315C5.60056 3.74769 5.60323 3.77458 5.59998 3.8003C5.59998 3.9403 5.53997 4.01026 5.40997 4.01026H3.40997L4.27997 4.47022C4.70507 4.64142 5.14312 4.7777 5.58997 4.8794C5.63663 4.89082 5.67797 4.91834 5.70709 4.95655C5.73621 4.99477 5.75138 5.04134 5.75 5.08937C5.75477 5.12111 5.75215 5.15447 5.74243 5.18507C5.73271 5.21566 5.71612 5.24295 5.69391 5.26612C5.6717 5.2893 5.64447 5.30687 5.61432 5.31788C5.58416 5.32889 5.55188 5.33301 5.51996 5.3296C5.38813 5.3242 5.25736 5.3045 5.13 5.27003C4.86252 5.19903 4.60155 5.10508 4.34998 4.98976C3.93137 4.79374 3.52995 4.56347 3.14996 4.3003V5.36964C3.15314 5.39799 3.14993 5.4267 3.1405 5.45362C3.13107 5.48055 3.11569 5.50474 3.09552 5.52491C3.07535 5.54509 3.05085 5.56138 3.02393 5.57081C2.997 5.58024 2.96835 5.58278 2.94 5.5796C2.8 5.5796 2.73999 5.50964 2.73999 5.36964V4.36964C2.50891 4.53956 2.2685 4.6962 2.01996 4.83937C1.70313 5.01074 1.36757 5.14535 1.01996 5.23976C0.843144 5.3071 0.658226 5.3507 0.469971 5.36964C0.299971 5.36964 0.219971 5.27987 0.219971 5.10987C0.219971 4.93987 0.289993 4.92991 0.429993 4.89991C0.903778 4.79376 1.36355 4.6322 1.79999 4.41944C2.02428 4.32224 2.23585 4.19884 2.42999 4.0503H0.519958C0.399958 4.0503 0.329956 3.97937 0.329956 3.83937C0.3267 3.81364 0.329371 3.78773 0.337769 3.76319C0.346166 3.73866 0.360081 3.71708 0.378418 3.69874C0.396755 3.6804 0.419068 3.66612 0.443604 3.65772C0.468139 3.64933 0.494232 3.64666 0.519958 3.64991H2.69V3.26026H0.919983C0.789983 3.26026 0.72998 3.1996 0.72998 3.0796C0.726724 3.05387 0.729396 3.02796 0.737793 3.00343C0.74619 2.97889 0.760106 2.95633 0.778442 2.938C0.796779 2.91966 0.819032 2.90636 0.843567 2.89796C0.868102 2.88956 0.894256 2.88689 0.919983 2.89015H2.69V2.48976H0.690002C0.560002 2.48976 0.5 2.43007 0.5 2.31007C0.5 2.19007 0.560002 2.1294 0.690002 2.1294H1.84998L1.53998 1.48976H0.459961C0.329961 1.48976 0.259949 1.43007 0.259949 1.31007C0.259949 1.19007 0.329961 1.1294 0.459961 1.1294H1.29999C1.14665 0.949404 0.996642 0.779639 0.849976 0.619639C0.842087 0.576664 0.842087 0.53273 0.849976 0.489756C0.849976 0.359756 0.929956 0.289561 1.07996 0.289561C1.10412 0.290688 1.12766 0.29788 1.14856 0.310068C1.16945 0.322257 1.18708 0.339394 1.19995 0.359873C1.3622 0.53018 1.50942 0.714004 1.63995 0.909678C1.64863 0.949208 1.64863 0.990265 1.63995 1.02979C1.64555 1.06289 1.64555 1.09631 1.63995 1.1294H2.14996V0.319834C2.14715 0.293255 2.14998 0.266145 2.15826 0.240733C2.16654 0.21532 2.18007 0.192192 2.198 0.172373C2.21593 0.152554 2.23787 0.136272 2.26233 0.125498C2.28679 0.114724 2.31324 0.109725 2.33997 0.109873ZM2.33997 2.10987H3.53998L3.82996 1.47022H2.02997L2.33997 2.10987Z" fill="white"/>
</svg>
