<svg width="3" height="3" viewBox="0 0 3 3" fill="none" xmlns="http://www.w3.org/2000/svg">
<path d="M1.18999 2.90001C1.04739 2.90686 0.905312 2.87851 0.77626 2.81747C0.647208 2.75644 0.535159 2.66458 0.449997 2.55C0.272288 2.29162 0.181234 1.98347 0.189987 1.67C0.178483 1.35615 0.277583 1.04823 0.469986 0.800004C0.557422 0.687919 0.669909 0.597879 0.798416 0.537098C0.926922 0.476318 1.06788 0.446491 1.20999 0.450005C1.3508 0.445653 1.4906 0.475167 1.61763 0.536072C1.74466 0.596978 1.85521 0.687492 1.93999 0.800004C2.1252 1.05522 2.2202 1.36483 2.20999 1.68C2.22452 2.00041 2.12535 2.31563 1.92999 2.57C1.84052 2.67843 1.72713 2.76465 1.59874 2.82191C1.47035 2.87916 1.33044 2.9059 1.18999 2.90001ZM1.18999 2.56001C1.26677 2.56118 1.3428 2.54465 1.41217 2.5117C1.48154 2.47875 1.54239 2.43026 1.59 2.37C1.71475 2.15896 1.77066 1.91429 1.74998 1.67C1.75917 1.44818 1.71095 1.22773 1.60998 1.03C1.57135 0.956006 1.51201 0.894858 1.43921 0.854016C1.3664 0.813174 1.28329 0.794406 1.2 0.800004C0.839996 0.800004 0.649993 1.09 0.649993 1.68C0.637763 1.90849 0.686056 2.13616 0.789993 2.34C0.832479 2.40764 0.891499 2.46334 0.961486 2.50183C1.03147 2.54032 1.11011 2.56035 1.18999 2.56001Z" fill="white"/>
</svg>
