<svg width="7" height="6" viewBox="0 0 7 6" fill="none" xmlns="http://www.w3.org/2000/svg">
<path d="M1.73999 3.31998V3.37999C1.74269 3.78311 1.70244 4.18537 1.61997 4.57998C1.56779 4.87397 1.47702 5.15978 1.34998 5.42999C1.28998 5.50998 1.23997 5.54998 1.17997 5.54998C1.15107 5.55133 1.12221 5.54696 1.09501 5.53713C1.0678 5.5273 1.04279 5.51219 1.02143 5.49269C1.00006 5.47318 0.982753 5.44965 0.970493 5.42345C0.958234 5.39725 0.951269 5.36889 0.949986 5.33998C0.941313 5.30046 0.941313 5.25952 0.949986 5.21999C1.09318 4.90194 1.19082 4.56529 1.23999 4.21999C1.28849 3.94939 1.3119 3.67489 1.30997 3.39999V0.499985C1.30997 0.369985 1.36999 0.299984 1.48999 0.299984C1.51779 0.295053 1.54634 0.296726 1.57337 0.304871C1.60039 0.313015 1.62513 0.327403 1.64557 0.34687C1.66601 0.366338 1.68159 0.390341 1.69104 0.416939C1.7005 0.443536 1.70356 0.471984 1.69999 0.499985V1.87999H2.21997V0.369984C2.21672 0.344257 2.21939 0.318126 2.22779 0.293591C2.23618 0.269056 2.2501 0.246769 2.26844 0.228432C2.28677 0.210095 2.30906 0.196195 2.33359 0.187798C2.35813 0.1794 2.38425 0.176729 2.40998 0.179985C2.53998 0.179985 2.60999 0.239984 2.60999 0.369984V1.87999H2.84998C2.89772 1.87999 2.94351 1.89895 2.97727 1.9327C3.01102 1.96646 3.02997 2.01225 3.02997 2.05999C3.02997 2.10773 3.01102 2.15351 2.97727 2.18726C2.94351 2.22102 2.89772 2.23998 2.84998 2.23998H1.77997V2.93998H2.45996C2.76996 2.93998 2.92997 3.08999 2.92997 3.37999V5.37999C2.93315 5.40834 2.9299 5.43704 2.92048 5.46396C2.91105 5.49089 2.8957 5.51535 2.87552 5.53552C2.85535 5.55569 2.83088 5.57106 2.80396 5.58049C2.77703 5.58992 2.74833 5.59317 2.71997 5.58998C2.58997 5.58998 2.52997 5.51999 2.52997 5.37999V3.49998C2.52997 3.37998 2.46997 3.31998 2.33997 3.31998H1.73999ZM6.31998 4.21999C6.3444 4.21668 6.36924 4.21906 6.39258 4.22694C6.41593 4.23482 6.43714 4.24798 6.45456 4.2654C6.47198 4.28282 6.48514 4.30403 6.49302 4.32738C6.50089 4.35072 6.50328 4.37557 6.49997 4.39999C6.49997 4.53999 6.43998 4.60999 6.31998 4.60999H5.31998V5.31998C5.31998 5.37568 5.29784 5.42909 5.25846 5.46848C5.21907 5.50786 5.16568 5.52998 5.10999 5.52998C5.05429 5.52998 5.00087 5.50786 4.96149 5.46848C4.92211 5.42909 4.89997 5.37568 4.89997 5.31998V4.56998H3.10999C2.98999 4.56998 2.92997 4.49999 2.92997 4.35999C2.92666 4.33557 2.92905 4.31072 2.93692 4.28738C2.9448 4.26403 2.95799 4.24282 2.97541 4.2254C2.99283 4.20798 3.01404 4.19482 3.03739 4.18694C3.06073 4.17906 3.08557 4.17668 3.10999 4.17999H4.89997V3.52998C4.89997 3.47429 4.92211 3.42088 4.96149 3.38149C5.00087 3.34211 5.05429 3.31998 5.10999 3.31998C5.16568 3.31998 5.21907 3.34211 5.25846 3.38149C5.29784 3.42088 5.31998 3.47429 5.31998 3.52998V4.17999L6.31998 4.21999ZM4.64997 0.109985C4.70272 0.110737 4.75306 0.1323 4.78998 0.169983C4.81098 0.188582 4.82732 0.21183 4.83774 0.237873C4.84816 0.263916 4.85236 0.292036 4.84998 0.319984C4.84885 0.376985 4.83152 0.432485 4.79999 0.479984C4.77497 0.541147 4.74129 0.598401 4.69999 0.649986H5.84998C6.13998 0.649986 6.28998 0.789984 6.28998 1.06998V2.73998C6.29829 2.79971 6.29262 2.86055 6.27344 2.91772C6.25427 2.97489 6.22212 3.02683 6.17948 3.06947C6.13684 3.11211 6.08488 3.14428 6.02771 3.16346C5.97054 3.18263 5.90971 3.18829 5.84998 3.17999H4.76999C4.67764 3.37287 4.54458 3.54345 4.37998 3.67999C4.16161 3.85948 3.9149 4.00141 3.64997 4.09998H3.51999C3.37999 4.09998 3.30997 4.01998 3.30997 3.86998C3.30943 3.82878 3.32164 3.78842 3.34491 3.75441C3.36818 3.7204 3.40137 3.6944 3.43998 3.67999C3.66728 3.5995 3.8826 3.48848 4.07999 3.34998C4.15086 3.29091 4.21463 3.22379 4.26999 3.14999H3.58997C3.53059 3.15874 3.47 3.15331 3.41312 3.13413C3.35625 3.11495 3.30471 3.08257 3.26276 3.03965C3.22081 2.99672 3.18962 2.94447 3.17176 2.88717C3.15389 2.82986 3.14986 2.76915 3.15998 2.70998V1.06998C3.15115 1.01191 3.15628 0.952575 3.17493 0.896877C3.19358 0.84118 3.22523 0.790726 3.26725 0.749683C3.30927 0.708641 3.36045 0.678191 3.41657 0.660854C3.47269 0.643518 3.53212 0.639794 3.58997 0.649986H4.23999L4.29999 0.569984C4.36999 0.449984 4.43997 0.329985 4.49997 0.199986C4.53617 0.1514 4.59007 0.119058 4.64997 0.109985ZM3.52997 1.65998H4.41999V1.03999H3.69999C3.58999 1.03999 3.52997 1.08999 3.52997 1.19999V1.65998ZM4.39997 2.77998C4.40488 2.72008 4.40488 2.65988 4.39997 2.59998V2.03999H3.50998V2.59998C3.50998 2.71998 3.56997 2.77998 3.67997 2.77998H4.39997ZM5.66999 2.77998C5.77999 2.77998 5.83997 2.71998 5.83997 2.59998V2.03999H4.83997V2.59998C4.84489 2.65988 4.84489 2.72008 4.83997 2.77998H5.66999ZM4.84998 1.03999V1.65998H5.84998V1.19999C5.84998 1.08999 5.78997 1.03999 5.67997 1.03999H4.84998Z" fill="white"/>
</svg>
