<svg width="4" height="6" viewBox="0 0 4 6" fill="none" xmlns="http://www.w3.org/2000/svg">
<path d="M3.85002 0.72998V3.72998C3.86267 4.04932 3.81518 4.36819 3.71002 4.66998C3.59851 4.91154 3.41284 5.11122 3.18002 5.23998C2.87427 5.4074 2.52818 5.487 2.18002 5.46998C1.85822 5.48153 1.53861 5.4128 1.25001 5.26998C1.01832 5.14438 0.83268 4.94823 0.720012 4.70998C0.602349 4.41804 0.547832 4.1045 0.560024 3.78998V0.72998H1.42002V3.72998C1.38722 3.85461 1.385 3.98532 1.41357 4.11098C1.44214 4.23665 1.50065 4.35356 1.58412 4.45175C1.66758 4.54995 1.77353 4.62652 1.89296 4.67496C2.01238 4.72341 2.14173 4.74228 2.27002 4.72998C2.49803 4.74771 2.72399 4.67598 2.90002 4.52998C2.99532 4.42181 3.06611 4.29432 3.10754 4.15624C3.14896 4.01816 3.16004 3.87275 3.14001 3.72998V0.72998H3.85002Z" fill="white"/>
</svg>
