<svg width="3" height="4" viewBox="0 0 3 4" fill="none" xmlns="http://www.w3.org/2000/svg">
<path d="M2.72998 3.14991H2.26996L1.89996 2.14991H1.29999V3.14991H0.849976V0.779795H1.84998C2.07968 0.759761 2.30843 0.828098 2.48999 0.970225C2.55514 1.0359 2.60639 1.11382 2.64075 1.19972C2.67511 1.28561 2.69189 1.37773 2.69 1.47022C2.69879 1.60814 2.66122 1.74476 2.58331 1.8589C2.50541 1.97304 2.39158 2.05804 2.25995 2.10011L2.72998 3.14991ZM1.29999 1.8296H1.84998C1.97338 1.8391 2.09644 1.80761 2.19995 1.73976C2.23562 1.70455 2.26381 1.66215 2.28271 1.61573C2.30162 1.56932 2.3109 1.52033 2.31 1.47022C2.31453 1.42263 2.30679 1.37434 2.28754 1.33058C2.26828 1.28681 2.23811 1.24904 2.19995 1.22022C2.11373 1.14753 2.0024 1.11103 1.88995 1.11964H1.31995L1.29999 1.8296Z" fill="white"/>
</svg>
