<svg width="7" height="6" viewBox="0 0 7 6" fill="none" xmlns="http://www.w3.org/2000/svg">
<path d="M5.85004 0.480038C5.87445 0.476736 5.89929 0.479117 5.92264 0.486996C5.94598 0.494874 5.9672 0.508034 5.98462 0.525455C6.00204 0.542877 6.01521 0.564089 6.02309 0.587433C6.03096 0.610777 6.03333 0.635623 6.03003 0.660038C6.03003 0.800038 5.97004 0.870037 5.85004 0.870037H3.68004V1.18004H5.21004C5.45004 1.18004 5.57004 1.28004 5.57004 1.48004V2.60004C5.57004 2.81004 5.45004 2.91004 5.23004 2.92004C5.41133 3.10827 5.57531 3.31243 5.72003 3.53004C5.74634 3.56902 5.76344 3.61347 5.77003 3.66004C5.77003 3.79004 5.70004 3.85004 5.56004 3.85004C5.52109 3.863 5.47898 3.863 5.44003 3.85004L5.19003 3.52004H4.97003V4.00004H5.97003C5.99484 3.99704 6.02002 3.99956 6.04375 4.0074C6.06748 4.01524 6.08919 4.02821 6.10733 4.0454C6.12547 4.06259 6.1396 4.08356 6.14871 4.10683C6.15782 4.13011 6.16168 4.1551 6.16003 4.18004C6.16003 4.32004 6.09003 4.39004 5.97003 4.39004H4.97003V5.07004C4.97003 5.41004 4.79004 5.58004 4.42004 5.58004C4.10404 5.56348 3.79146 5.50635 3.49004 5.41004C3.44241 5.40044 3.39991 5.37383 3.37047 5.33519C3.34102 5.29655 3.32665 5.2485 3.33003 5.20004C3.33003 5.07004 3.39004 5.00004 3.49004 5.00004H3.63004C3.86559 5.06722 4.10647 5.11406 4.35004 5.14004C4.49004 5.14004 4.56004 5.05004 4.56004 4.88004V4.37004H0.850037C0.720037 4.37004 0.660034 4.30004 0.660034 4.16004C0.660034 4.02004 0.720037 3.98004 0.850037 3.98004H4.56004V3.52004C3.39004 3.52004 2.26003 3.60004 1.19003 3.63004C1.06003 3.63004 1.00003 3.56004 1.00003 3.42004C1.00003 3.28004 1.06003 3.24004 1.19003 3.23004C1.91003 3.23004 2.5767 3.23004 3.19003 3.23004V2.92004H1.59004C1.54609 2.92645 1.50125 2.92269 1.45898 2.90903C1.41672 2.89537 1.37815 2.87219 1.34627 2.84127C1.31438 2.81035 1.29002 2.77252 1.27507 2.73069C1.26012 2.68886 1.25498 2.64416 1.26004 2.60004V1.48004C1.26004 1.28004 1.37004 1.18004 1.59004 1.18004H3.19003V0.870037H0.940033C0.820033 0.870037 0.750031 0.800038 0.750031 0.660038C0.74838 0.635101 0.752257 0.610109 0.761368 0.586838C0.770479 0.563567 0.784607 0.54259 0.80275 0.525402C0.820892 0.508214 0.842604 0.495237 0.866333 0.487396C0.890062 0.479555 0.915222 0.477043 0.940033 0.480038H3.19003V0.250038C3.19003 0.194343 3.21216 0.14093 3.25154 0.101547C3.29092 0.0621646 3.34434 0.0400391 3.40004 0.0400391C3.45574 0.0400391 3.50914 0.0621646 3.54852 0.101547C3.58791 0.14093 3.61003 0.194343 3.61003 0.250038V0.480038H5.85004ZM1.73004 1.86004H3.26004V1.53004H1.85004C1.77004 1.53004 1.73004 1.53004 1.73004 1.66004V1.86004ZM3.26004 2.58004V2.17004H1.73004V2.41004C1.73004 2.52004 1.73004 2.58004 1.85004 2.58004H3.26004ZM2.34004 4.50004C2.3835 4.51043 2.42222 4.53507 2.45004 4.57004C2.61775 4.71618 2.76867 4.88053 2.90004 5.06004C2.90751 5.10305 2.90751 5.14703 2.90004 5.19004C2.90004 5.32004 2.83003 5.38004 2.69003 5.38004C2.65438 5.39223 2.61569 5.39223 2.58003 5.38004C2.4339 5.20062 2.27694 5.0303 2.11003 4.87004C2.10222 4.83042 2.10222 4.78966 2.11003 4.75004C2.12003 4.57004 2.19004 4.50004 2.35004 4.50004H2.34004ZM3.68004 1.50004V1.83004H5.17004V1.63004C5.17004 1.54004 5.17003 1.50004 5.03003 1.50004H3.68004ZM5.03003 2.50004C5.13003 2.50004 5.17004 2.44004 5.17004 2.33004V2.09004H3.68004V2.50004H5.03003ZM4.94003 3.08004C4.93308 3.05722 4.93308 3.03285 4.94003 3.01004C4.94003 2.92004 4.94004 2.87004 5.01004 2.84004H3.70004V3.12004L4.94003 3.08004Z" fill="white"/>
</svg>
