<svg width="7" height="6" viewBox="0 0 7 6" fill="none" xmlns="http://www.w3.org/2000/svg">
<path d="M5.94 0.430664C5.96442 0.427362 5.98923 0.429622 6.01257 0.4375C6.03592 0.445378 6.05716 0.458165 6.07458 0.475586C6.09201 0.493007 6.10516 0.514742 6.11304 0.538086C6.12092 0.56143 6.1233 0.585937 6.12 0.610352C6.12 0.750352 6.06 0.830078 5.94 0.830078H3.76996V1.12988H5.29999C5.53999 1.12988 5.65997 1.23066 5.65997 1.43066V2.55078C5.65997 2.76078 5.54995 2.87012 5.31995 2.87012C5.50123 3.05835 5.66528 3.26286 5.81 3.48047C5.82104 3.52648 5.82104 3.5741 5.81 3.62012C5.81 3.74012 5.73998 3.80078 5.59998 3.80078C5.56103 3.81374 5.51893 3.81374 5.47998 3.80078L5.22998 3.48047H5.00995V3.95996H6.00995C6.03476 3.95697 6.05995 3.95993 6.08368 3.96777C6.10741 3.97561 6.12914 3.98867 6.14728 4.00586C6.16542 4.02305 6.17955 4.04411 6.18866 4.06738C6.19777 4.09065 6.2016 4.11569 6.19995 4.14062C6.19995 4.28062 6.12995 4.35059 6.00995 4.35059H5.00995V5.03027C5.00995 5.37027 4.82996 5.54004 4.45996 5.54004C4.14339 5.52844 3.83017 5.47126 3.52997 5.37012C3.48316 5.36274 3.44079 5.33876 3.41119 5.30176C3.38159 5.26476 3.36692 5.21721 3.37 5.16992C3.37 5.02992 3.42997 4.96996 3.52997 4.95996H3.66998C3.90553 5.02714 4.14639 5.07461 4.38995 5.10059C4.52995 5.10059 4.59998 5.00984 4.59998 4.83984V4.32031H0.889954C0.759954 4.32031 0.699951 4.25035 0.699951 4.11035C0.699951 3.97035 0.759954 3.93066 0.889954 3.93066H4.59998V3.4707C3.42998 3.4707 2.30998 3.56008 1.22998 3.58008C1.10998 3.58008 1.03998 3.51012 1.03998 3.37012C1.03998 3.23012 1.10998 3.19066 1.22998 3.18066H3.22998V2.87988H1.63C1.58642 2.88672 1.54182 2.88378 1.49988 2.87012C1.45793 2.85645 1.4198 2.83295 1.38861 2.80176C1.35742 2.77056 1.33404 2.73238 1.32037 2.69043C1.30671 2.64848 1.30316 2.60413 1.31 2.56055V1.44043C1.31 1.24043 1.41 1.14062 1.63 1.14062H3.22998V0.839844H0.97998C0.85998 0.839844 0.789978 0.760117 0.789978 0.620117C0.788328 0.59518 0.79222 0.570146 0.801331 0.546875C0.810442 0.523604 0.82457 0.502539 0.842712 0.485352C0.860855 0.468164 0.882521 0.455106 0.90625 0.447266C0.929979 0.439425 0.955169 0.437435 0.97998 0.44043H3.22998V0.209961C3.22998 0.0699609 3.3 0.0107422 3.44 0.0107422C3.58 0.0107422 3.64996 0.0699609 3.64996 0.209961V0.44043L5.94 0.430664ZM1.81995 1.81055H3.34998V1.48047H1.94C1.86 1.48047 1.81995 1.48012 1.81995 1.62012V1.81055ZM3.34998 2.53027V2.12988H1.84998V2.36035C1.84998 2.47035 1.84997 2.53027 1.96997 2.53027H3.34998ZM2.42999 4.4502C2.47345 4.46059 2.51216 4.48554 2.53998 4.52051C2.70503 4.66935 2.8557 4.83364 2.98999 5.01074C2.99764 5.0571 2.99764 5.10404 2.98999 5.15039C2.98999 5.27039 2.91997 5.33008 2.77997 5.33008C2.74431 5.34227 2.70564 5.34227 2.66998 5.33008C2.52385 5.15066 2.36686 4.98058 2.19995 4.82031C2.19214 4.78069 2.19214 4.73981 2.19995 4.7002C2.19995 4.5202 2.26999 4.4502 2.42999 4.4502ZM3.76996 1.4502V1.78027H5.25995V1.58984C5.26353 1.57068 5.26242 1.55183 5.25665 1.5332C5.25088 1.51458 5.24065 1.49719 5.22687 1.4834C5.21308 1.46961 5.19612 1.45987 5.17749 1.4541C5.15886 1.44833 5.13916 1.44661 5.12 1.4502H3.76996ZM5.12 2.4502C5.22 2.4502 5.25995 2.39027 5.25995 2.28027V2.05078H3.76996V2.4502H5.12ZM5.02997 3.03027C5.02797 3.00698 5.02797 2.98325 5.02997 2.95996C5.02528 2.92795 5.02931 2.89515 5.04163 2.86523C5.05394 2.83532 5.07411 2.80947 5.09998 2.79004H3.78998V3.07031C4.21998 3.15031 4.63997 3.13035 5.02997 3.11035V3.03027Z" fill="white"/>
</svg>
