<svg width="4" height="6" viewBox="0 0 4 6" fill="none" xmlns="http://www.w3.org/2000/svg">
<path d="M3.93993 0.69043V3.69043C3.95258 4.00977 3.90508 4.32809 3.79992 4.62988C3.68841 4.87144 3.50271 5.07144 3.26989 5.2002C2.98089 5.36401 2.6518 5.44415 2.31988 5.43066C1.9944 5.44797 1.67018 5.37878 1.37994 5.23047C1.14602 5.1078 0.959527 4.91024 0.849906 4.66992C0.732165 4.38151 0.677634 4.07202 0.689933 3.76074V0.700195H1.54992V3.7002C1.52972 3.84528 1.54163 3.99284 1.58483 4.13281C1.62803 4.27278 1.70147 4.40228 1.79992 4.51074C1.97301 4.64056 2.18352 4.70996 2.39989 4.70996C2.62912 4.72386 2.85486 4.64866 3.0299 4.5C3.1252 4.39183 3.19599 4.26504 3.23742 4.12695C3.27884 3.98887 3.28991 3.84296 3.26989 3.7002V0.700195L3.93993 0.69043Z" fill="white"/>
</svg>
