<svg width="3" height="4" viewBox="0 0 3 4" fill="none" xmlns="http://www.w3.org/2000/svg">
<path d="M1.62002 2.32054H2.01999C2.00017 2.54435 1.90087 2.7535 1.74002 2.91038C1.65728 2.9882 1.55977 3.04861 1.45328 3.08812C1.34679 3.12762 1.23349 3.14588 1.12002 3.14085C0.930151 3.15057 0.742771 3.09386 0.589995 2.98069C0.449456 2.86005 0.342642 2.7048 0.279997 2.5305C0.206259 2.33562 0.168987 2.1285 0.170012 1.92015C0.152262 1.60247 0.244047 1.28866 0.430022 1.0305C0.510348 0.918819 0.617471 0.829173 0.741545 0.769757C0.865619 0.710341 1.00262 0.683222 1.13998 0.690655C1.2465 0.686294 1.3528 0.703627 1.45248 0.741436C1.55216 0.779245 1.64317 0.836474 1.72 0.910382C1.89026 1.075 1.99656 1.29483 2.01999 1.5305H1.62002C1.55002 1.1705 1.38998 1.00023 1.13998 1.00023C1.06375 0.997806 0.988436 1.01789 0.922881 1.05687C0.857326 1.09584 0.80427 1.1528 0.769988 1.22093C0.67778 1.42522 0.630095 1.64621 0.630095 1.87034C0.630095 2.09448 0.67778 2.31644 0.769988 2.52073C0.808517 2.58747 0.863883 2.64228 0.930571 2.68089C0.997259 2.7195 1.07293 2.74028 1.14999 2.74046C1.21137 2.74242 1.27236 2.73039 1.32797 2.70433C1.38358 2.67826 1.43224 2.6385 1.47 2.59007C1.54432 2.51591 1.59632 2.42282 1.62002 2.32054Z" fill="white"/>
</svg>
