<svg width="3" height="3" viewBox="0 0 3 3" fill="none" xmlns="http://www.w3.org/2000/svg">
<path d="M0.349976 2.82051V0.440631H1.21997C1.36777 0.43769 1.51442 0.467025 1.64929 0.527545C1.78417 0.588065 1.90394 0.677874 2 0.79024C2.20244 1.02234 2.3096 1.32225 2.29999 1.63008C2.31152 1.94301 2.20027 2.24864 1.98999 2.48067C1.88076 2.59748 1.74693 2.68847 1.59821 2.74727C1.44948 2.80607 1.28958 2.83105 1.13 2.82051H0.349976ZM0.789978 2.4709H1.13995C1.233 2.47406 1.32559 2.45533 1.41052 2.41719C1.49546 2.37906 1.57053 2.32183 1.63 2.2502C1.77393 2.06916 1.84519 1.84133 1.82996 1.61055C1.83656 1.40092 1.77711 1.19468 1.65997 1.02071C1.60803 0.94451 1.53776 0.881983 1.45563 0.840045C1.3735 0.798107 1.28218 0.777869 1.19 0.780475H0.789978V2.4709Z" fill="white"/>
</svg>
