<svg width="23" height="39" viewBox="0 0 23 39" fill="none" xmlns="http://www.w3.org/2000/svg">
<path d="M16.54 0.679696H5.76999C5.02455 0.678382 4.28615 0.824052 3.59708 1.10841C2.90801 1.39276 2.28178 1.81028 1.75421 2.33692C1.22664 2.86356 0.808091 3.48917 0.522522 4.17774C0.236953 4.86631 0.0899647 5.60418 0.0899658 6.34962V18.4497C0.0926119 19.2012 0.393007 19.9212 0.925323 20.4517C1.45764 20.9821 2.17848 21.2798 2.92996 21.2798C3.32481 21.2814 3.71563 21.2004 4.0773 21.042C4.43897 20.8836 4.76348 20.6512 5.02997 20.3599V35.0498C5.02996 35.8623 5.35205 36.6418 5.92563 37.2173C6.4992 37.7927 7.27748 38.117 8.08997 38.1196H14.22C15.0325 38.117 15.8108 37.7927 16.3843 37.2173C16.9579 36.6418 17.28 35.8623 17.28 35.0498V20.3198C17.5465 20.6112 17.871 20.8435 18.2326 21.002C18.5943 21.1604 18.9851 21.2414 19.38 21.2398C20.1305 21.2398 20.8503 20.9419 21.3811 20.4111C21.9118 19.8804 22.21 19.1602 22.21 18.4097V6.31983C22.202 4.82126 21.6012 3.38694 20.5387 2.33009C19.4762 1.27324 18.0386 0.679675 16.54 0.679696Z" fill="#44F051"/>
</svg>
