<svg width="3" height="3" viewBox="0 0 3 3" fill="none" xmlns="http://www.w3.org/2000/svg">
<path d="M1.26994 2.86077C1.1266 2.86561 0.984244 2.83563 0.85527 2.77288C0.726297 2.71014 0.614623 2.61619 0.529953 2.50042C0.352245 2.24204 0.261191 1.93401 0.269943 1.62054C0.259288 1.30681 0.358328 0.999047 0.549973 0.750422C0.637409 0.638337 0.749896 0.548506 0.878403 0.487726C1.00691 0.426946 1.14785 0.397298 1.28996 0.400812C1.43077 0.39646 1.57059 0.425845 1.69762 0.48675C1.82465 0.547655 1.93516 0.63791 2.01994 0.750422C2.20516 1.00564 2.30017 1.31513 2.28996 1.6303C2.30449 1.95071 2.20529 2.26656 2.00993 2.52093C1.92096 2.6306 1.80794 2.71783 1.67961 2.77679C1.55129 2.83575 1.41111 2.8647 1.26994 2.86077ZM1.26994 2.51116C1.34517 2.51156 1.41947 2.49431 1.48711 2.46136C1.55474 2.42841 1.6139 2.38022 1.65996 2.32073C1.78471 2.10969 1.84061 1.86483 1.81993 1.62054C1.82912 1.39871 1.78094 1.17862 1.67998 0.98089C1.64134 0.906893 1.58201 0.845951 1.5092 0.805109C1.4364 0.764268 1.35323 0.744824 1.26994 0.750422C0.909943 0.750422 0.719956 1.05105 0.719956 1.64105C0.70855 1.86626 0.756861 2.08991 0.85997 2.29046C0.903406 2.36181 0.96542 2.42065 1.03941 2.45941C1.11341 2.49816 1.19657 2.51608 1.27995 2.51116H1.26994Z" fill="white"/>
</svg>
