<svg width="7" height="6" viewBox="0 0 7 6" fill="none" xmlns="http://www.w3.org/2000/svg">
<path d="M1.85001 2.24007H5.45002C5.50262 2.23222 5.55631 2.23647 5.60703 2.25248C5.65775 2.26849 5.70415 2.29586 5.74271 2.33249C5.78127 2.36912 5.81097 2.41406 5.82956 2.46389C5.84816 2.51372 5.85515 2.56713 5.85001 2.62007V4.43007C5.85001 4.68007 5.71002 4.80007 5.45002 4.80007H4.66001C5.14351 4.96487 5.63807 5.0952 6.14 5.19007C6.24 5.24007 6.29001 5.30007 6.29001 5.38007C6.29313 5.41104 6.28933 5.44233 6.27887 5.47165C6.26842 5.50097 6.25157 5.5276 6.22956 5.54962C6.20754 5.57163 6.18091 5.58848 6.15158 5.59893C6.12226 5.60939 6.09099 5.61319 6.06002 5.61007C5.75827 5.5546 5.46086 5.47774 5.17002 5.38007C4.90013 5.29827 4.63616 5.19803 4.38001 5.08007C4.33087 5.03581 4.299 4.97558 4.29001 4.91007C4.27701 4.87455 4.27701 4.83558 4.29001 4.80007H2.93001C2.95885 4.82988 2.97652 4.86874 2.98001 4.91007C2.97941 4.95357 2.96699 4.99608 2.9441 5.03307C2.9212 5.07006 2.88868 5.10013 2.85001 5.12007C2.58713 5.22494 2.31627 5.30854 2.04001 5.37007C1.79001 5.43007 1.49001 5.49007 1.13001 5.55007C1.10187 5.54898 1.07427 5.54197 1.04903 5.52948C1.02379 5.51699 1.00148 5.4993 0.983539 5.47759C0.965603 5.45588 0.95245 5.43063 0.94495 5.40348C0.93745 5.37633 0.935761 5.34791 0.940006 5.32007C0.940006 5.19007 0.94001 5.12007 1.10001 5.11007C1.43001 5.11007 1.69001 5.03007 1.87001 4.99007C2.12343 4.94108 2.37384 4.87765 2.62001 4.80007H1.85001C1.59001 4.80007 1.45002 4.68007 1.45002 4.43007V2.62007C1.44488 2.56713 1.45186 2.51372 1.47045 2.46389C1.48904 2.41406 1.51876 2.36912 1.55732 2.33249C1.59588 2.29586 1.64226 2.26849 1.69298 2.25248C1.7437 2.23647 1.79741 2.23222 1.85001 2.24007ZM1.85001 0.320068H5.29001C5.52001 0.320068 5.63001 0.420068 5.63001 0.620068V0.940067H6.07001C6.09311 0.936712 6.11669 0.938799 6.13884 0.946156C6.161 0.953512 6.18113 0.965937 6.19764 0.982445C6.21414 0.998953 6.22656 1.01908 6.23392 1.04124C6.24128 1.0634 6.24336 1.08697 6.24001 1.11007C6.24001 1.24007 6.24001 1.30007 6.07001 1.30007H5.63001V1.64007C5.63001 1.86007 5.52001 1.97007 5.29001 1.97007H1.85001C1.62001 1.97007 1.5 1.86007 1.5 1.64007V1.32007H1.09002C0.970015 1.32007 0.920017 1.26007 0.920017 1.13007C0.916662 1.10697 0.918733 1.0834 0.92609 1.06124C0.933447 1.03909 0.945883 1.01895 0.962391 1.00245C0.978898 0.985937 0.999027 0.973509 1.02118 0.966152C1.04334 0.958795 1.06691 0.956713 1.09002 0.960068H1.5V0.620068C1.53 0.420068 1.65001 0.320068 1.85001 0.320068ZM1.85001 3.04007H5.39V2.76007C5.39 2.67007 5.39 2.62007 5.28 2.62007H1.95002C1.87002 2.62007 1.84002 2.67007 1.84002 2.76007L1.85001 3.04007ZM1.85001 3.68007H5.39V3.32007H1.85001V3.68007ZM5.28 4.43007C5.36 4.43007 5.39 4.43007 5.39 4.29007V4.01007H1.85001V4.32007C1.85001 4.41007 1.85001 4.46007 1.96001 4.46007L5.28 4.43007ZM1.96001 0.940067H3.40001V0.670067H2.08001C2.00001 0.670067 1.96001 0.67007 1.96001 0.81007V0.940067ZM3.40001 1.62007V1.32007H1.95002V1.47007C1.95002 1.59007 1.95001 1.64007 2.07001 1.64007L3.40001 1.62007ZM3.80001 0.670067V0.940067H5.26001V0.81007C5.26001 0.71007 5.26 0.670067 5.14 0.670067H3.80001ZM5.14 1.62007C5.22 1.62007 5.26001 1.62007 5.26001 1.45007V1.32007H3.80001V1.64007L5.14 1.62007Z" fill="white"/>
</svg>
